<?xml version="1.0" encoding="iso-8859-1"?>
<!-- Generator: Adobe Illustrator 19.0.0, SVG Export Plug-In . SVG Version: 6.00 Build 0)  -->
<svg version="1.1" id="Capa_1" xmlns="http://www.w3.org/2000/svg" xmlns:xlink="http://www.w3.org/1999/xlink" x="0px" y="0px"
	 viewBox="0 0 512.001 512.001" style="enable-background:new 0 0 512.001 512.001;" xml:space="preserve">
<g>
	<g>
		<path d="M477.089,290.817H373.944l-49.09-98.749c-6.305-12.685-17.617-29.549-42.955-29.549H139.984V56.001
			c0-3.339-1.666-6.457-4.441-8.313c-2.776-1.855-6.294-2.204-9.38-0.928l-78,32.256c-3.74,1.547-6.179,5.194-6.179,9.241
			s2.438,7.694,6.179,9.241l71.821,29.701v35.32H95.502c-18.748,0-34,15.252-34,34v94.298h-26.59C15.661,290.817,0,306.479,0,325.73
			v105.357C0,450.338,15.661,466,34.912,466h357.891c65.727,0,119.198-53.473,119.198-119.199V325.73
			C512.001,306.479,496.34,290.817,477.089,290.817z M198.701,182.52h83.198c11.573-0.001,18.36,5,25.046,18.451l24.379,49.039
			H198.701V182.52z M78.152,88.257l41.832-17.299v34.598L78.152,88.257z M81.502,220.012h31.035c5.522,0,10-4.478,10-10
			c0-5.522-4.478-10-10-10H81.502v-3.492c0-7.72,6.28-14,14-14h83.199v77.49c0,5.522,4.477,10,10,10h152.565l10.344,20.808H81.502
			V220.012z M488.735,372.071h-33.648c-5.522,0-10,4.478-10,10c0,5.522,4.478,10,10,10h25.968
			c-16.48,31.996-49.852,53.93-88.252,53.93H34.912c-8.223,0-14.912-6.69-14.912-14.913v-76.677h471.712
			C491.251,360.465,490.239,366.367,488.735,372.071z M492.001,334.411H20v-8.681c0-8.223,6.69-14.913,14.912-14.913h442.177
			c8.223,0,14.912,6.69,14.912,14.913V334.411z"/>
	</g>
</g>
<g>
	<g>
		<path d="M141.504,200.013h-0.236c-5.522,0-10,4.478-10,10c0,5.522,4.478,10,10,10h0.236c5.522,0,10-4.478,10-10
			C151.504,204.491,147.026,200.013,141.504,200.013z"/>
	</g>
</g>
<g>
	<g>
		<path d="M426.357,372.073h-0.236c-5.522,0-10,4.478-10,10c0,5.523,4.478,10,10,10h0.236c5.522,0,10-4.477,10-10
			C436.357,376.551,431.879,372.073,426.357,372.073z"/>
	</g>
</g>
<g>
</g>
<g>
</g>
<g>
</g>
<g>
</g>
<g>
</g>
<g>
</g>
<g>
</g>
<g>
</g>
<g>
</g>
<g>
</g>
<g>
</g>
<g>
</g>
<g>
</g>
<g>
</g>
<g>
</g>
</svg>
