<?xml version="1.0" encoding="utf-8"?>
<!-- Generator: Adobe Illustrator 16.0.0, SVG Export Plug-In . SVG Version: 6.00 Build 0)  -->
<!DOCTYPE svg PUBLIC "-//W3C//DTD SVG 1.1//EN" "http://www.w3.org/Graphics/SVG/1.1/DTD/svg11.dtd">
<svg version="1.1" id="Capa_1" xmlns="http://www.w3.org/2000/svg" xmlns:xlink="http://www.w3.org/1999/xlink" x="0px" y="0px"
	 width="50px" height="50px" viewBox="0 0 50 50" enable-background="new 0 0 50 50" xml:space="preserve">
<g>
	<g>
		<path fill="#FFFFFF" d="M49.023,48.047h-1.562v-4.984c0.498-0.045,0.889-0.463,0.889-0.972s-0.391-0.927-0.889-0.972V30.465
			c0.498-0.045,0.889-0.463,0.889-0.973s-0.391-0.928-0.889-0.972v-1.958h1.562c0.539,0,0.977-0.438,0.977-0.977
			s-0.438-0.977-0.977-0.977H0.977C0.437,24.609,0,25.047,0,25.586s0.437,0.977,0.977,0.977h1.562v1.958
			c-0.498,0.044-0.888,0.462-0.888,0.972s0.391,0.928,0.888,0.973v10.654c-0.498,0.045-0.888,0.463-0.888,0.972
			s0.391,0.927,0.888,0.972v4.984H0.977C0.437,48.047,0,48.484,0,49.023S0.437,50,0.977,50h48.047C49.562,50,50,49.562,50,49.023
			S49.562,48.047,49.023,48.047z M4.492,30.469h4.506l-4.506,7.928V30.469z M32.162,40.115l-5.484-9.646h10.967L32.162,40.115z
			 M39.322,31.469l5.483,9.646H33.84L39.322,31.469z M30.482,41.114H19.517L25,31.469L30.482,41.114z M17.838,40.115l-5.483-9.646
			h10.966L17.838,40.115z M16.16,41.114H5.194l5.483-9.646L16.16,41.114z M45.508,44.703h-3.031c-0.539,0-0.977,0.438-0.977,0.977
			s0.438,0.977,0.977,0.977h3.031v1.391H4.492v-4.979h41.016V44.703z M45.508,38.396l-4.507-7.928h4.507V38.396z M45.508,28.516
			H4.492v-1.953h41.016V28.516z"/>
	</g>
</g>
<g>
	<g>
		<path fill="#FFFFFF" d="M39.672,44.703h-0.023c-0.539,0-0.977,0.438-0.977,0.977s0.438,0.977,0.977,0.977h0.023
			c0.539,0,0.977-0.438,0.977-0.977S40.211,44.703,39.672,44.703z"/>
	</g>
</g>
<g>
	<g>
		<path fill="#FFFFFF" d="M39.246,14.369c-0.271-1.008-0.917-1.85-1.82-2.372c-0.594-0.343-1.268-0.524-1.951-0.524
			c-0.492,0-0.973,0.096-1.418,0.27l-4.174-2.41l8.277-4.779c1.166-0.673,1.566-2.169,0.893-3.335C38.619,0.467,37.807,0,36.935,0
			c-0.427,0-0.847,0.113-1.216,0.326L25,6.514L14.281,0.326C13.912,0.113,13.492,0,13.065,0c-0.873,0-1.685,0.467-2.119,1.22
			c-0.673,1.166-0.272,2.662,0.893,3.335l8.277,4.778l-4.173,2.41c-0.446-0.174-0.926-0.27-1.419-0.27
			c-0.682,0-1.356,0.182-1.95,0.524c-0.904,0.522-1.55,1.364-1.82,2.372c-0.27,1.008-0.131,2.061,0.391,2.964
			c0.695,1.205,1.993,1.954,3.386,1.954c0.682,0,1.356-0.181,1.95-0.524c0.903-0.521,1.55-1.364,1.82-2.372
			c0.038-0.14,0.066-0.28,0.088-0.421L25,12.152l6.611,3.817c0.021,0.141,0.051,0.282,0.088,0.421c0.27,1.008,0.916,1.85,1.82,2.372
			c0.594,0.343,1.268,0.524,1.95,0.524l0,0c1.393,0,2.69-0.749,3.386-1.954C39.377,16.429,39.516,15.376,39.246,14.369z
			 M16.414,15.885c-0.135,0.504-0.458,0.925-0.91,1.187c-0.297,0.171-0.634,0.262-0.974,0.262c-0.697,0-1.346-0.375-1.694-0.978
			c-0.261-0.452-0.33-0.978-0.195-1.482c0.135-0.504,0.458-0.925,0.91-1.186c0.297-0.172,0.634-0.262,0.974-0.262
			c0.697,0,1.347,0.375,1.694,0.977c0.029,0.049,0.054,0.1,0.078,0.151c0.007,0.015,0.014,0.029,0.021,0.044
			c0.02,0.045,0.038,0.09,0.054,0.136c0.005,0.016,0.011,0.032,0.016,0.048c0.013,0.041,0.024,0.082,0.035,0.123
			c0.005,0.021,0.01,0.042,0.015,0.064c0.009,0.04,0.016,0.08,0.022,0.12c0.003,0.023,0.006,0.046,0.009,0.069
			c0.004,0.041,0.008,0.082,0.01,0.123c0.001,0.021,0.002,0.042,0.002,0.063C16.482,15.525,16.462,15.707,16.414,15.885z
			 M36.695,2.018c0.074-0.043,0.154-0.064,0.24-0.064c0.139,0,0.323,0.064,0.427,0.243c0.132,0.229,0.05,0.535-0.179,0.667
			L27.93,8.206l-0.977-0.563L36.695,2.018z M18.128,13.865c-0.003-0.006-0.006-0.013-0.009-0.019
			c-0.025-0.058-0.051-0.114-0.079-0.171c-0.008-0.016-0.015-0.032-0.023-0.048c-0.034-0.066-0.068-0.133-0.106-0.198
			c0-0.001-0.001-0.002-0.001-0.002c-0.042-0.074-0.087-0.146-0.134-0.216c-0.012-0.017-0.024-0.033-0.036-0.05
			c-0.033-0.047-0.066-0.095-0.101-0.142l4.431-2.558l0.977,0.563L18.128,13.865z M32.263,13.157
			c-0.013,0.018-0.026,0.036-0.039,0.055c-0.047,0.07-0.091,0.142-0.134,0.215c-0.038,0.066-0.074,0.133-0.107,0.201
			c-0.008,0.016-0.016,0.031-0.023,0.046c-0.027,0.057-0.054,0.115-0.078,0.172c-0.003,0.006-0.006,0.012-0.009,0.019L12.816,2.863
			c-0.229-0.132-0.311-0.438-0.178-0.667c0.104-0.179,0.289-0.243,0.427-0.243c0.085,0,0.166,0.021,0.24,0.064l11.207,6.47
			c0,0,0,0,0,0l2.93,1.691l0,0l4.919,2.84C32.326,13.064,32.295,13.11,32.263,13.157z M37.164,16.356
			c-0.348,0.603-0.997,0.977-1.694,0.977c-0.34,0-0.677-0.09-0.974-0.262c-0.451-0.261-0.775-0.682-0.91-1.186
			c-0.048-0.178-0.068-0.359-0.066-0.539c0.001-0.021,0.002-0.042,0.003-0.063c0.002-0.041,0.005-0.082,0.01-0.123
			c0.003-0.023,0.006-0.046,0.009-0.069c0.006-0.04,0.014-0.08,0.022-0.12c0.005-0.021,0.01-0.042,0.015-0.064
			c0.011-0.042,0.022-0.083,0.035-0.124c0.006-0.016,0.011-0.031,0.016-0.047c0.017-0.046,0.035-0.091,0.055-0.136
			c0.006-0.015,0.014-0.03,0.02-0.044c0.024-0.051,0.049-0.102,0.078-0.151c0.348-0.603,0.997-0.977,1.693-0.977
			c0.341,0,0.678,0.091,0.975,0.263c0.451,0.261,0.775,0.682,0.91,1.186S37.425,15.904,37.164,16.356z"/>
	</g>
</g>
</svg>
