<?xml version="1.0" encoding="utf-8"?>
<!-- Generator: Adobe Illustrator 16.0.0, SVG Export Plug-In . SVG Version: 6.00 Build 0)  -->
<!DOCTYPE svg PUBLIC "-//W3C//DTD SVG 1.1//EN" "http://www.w3.org/Graphics/SVG/1.1/DTD/svg11.dtd">
<svg version="1.1" id="Layer_1" xmlns="http://www.w3.org/2000/svg" xmlns:xlink="http://www.w3.org/1999/xlink" x="0px" y="0px"
	 width="50px" height="50px" viewBox="0 0 50 50" enable-background="new 0 0 50 50" xml:space="preserve">
<g>
	<path fill="#FFFFFF" d="M24.218,17.88c-0.13-0.015-0.26-0.031-0.389-0.044c-0.421-0.047-0.83-0.084-1.228-0.114
		c-0.656-0.044-1.308-0.081-1.92-0.081c-1.45,0-2.638,0.13-3.436,0.376c-0.196,0.061-0.343,0.125-0.468,0.188
		c-0.023,0.012-0.048,0.024-0.069,0.035c-0.106,0.061-0.188,0.122-0.249,0.181c-0.014,0.014-0.025,0.029-0.038,0.043
		c-0.109,0.128-0.14,0.25-0.14,0.349c0,0.144,0,0.583,1.271,0.949c0.989,0.286,2.475,0.443,4.184,0.443
		c2.627,0,5.788-0.376,8.453-1.095c-0.531-0.17-1.104-0.311-1.67-0.453C27.1,18.313,25.62,18.05,24.218,17.88z"/>
	<path fill="#FFFFFF" d="M24.208,26.344c-0.124-0.014-0.249-0.03-0.372-0.043c-0.424-0.047-0.837-0.085-1.239-0.114
		c-0.655-0.044-1.306-0.08-1.917-0.08c-1.45,0-2.638,0.129-3.436,0.378c-0.194,0.06-0.34,0.123-0.465,0.186
		c-0.024,0.013-0.051,0.024-0.074,0.038c-0.104,0.059-0.186,0.119-0.245,0.178c-0.016,0.016-0.028,0.031-0.042,0.048
		c-0.107,0.126-0.137,0.247-0.137,0.345c0,0.145,0,0.581,1.271,0.949c0.989,0.286,2.475,0.442,4.184,0.442
		c2.628,0,5.788-0.375,8.453-1.093c-0.535-0.172-1.107-0.312-1.677-0.456C27.091,26.775,25.61,26.514,24.208,26.344z"/>
	<path fill="#FFFFFF" d="M24.198,9.413c-0.124-0.015-0.249-0.031-0.373-0.043c-0.418-0.046-0.825-0.083-1.221-0.113
		c-0.658-0.044-1.311-0.081-1.924-0.081c-1.45,0-2.638,0.131-3.436,0.377c-0.195,0.061-0.341,0.124-0.466,0.188
		c-0.024,0.013-0.051,0.025-0.073,0.037c-0.105,0.06-0.188,0.12-0.248,0.18C16.444,9.972,16.432,9.986,16.421,10
		c-0.109,0.128-0.14,0.25-0.14,0.349c0,0.144,0,0.582,1.271,0.949c0.989,0.285,2.475,0.443,4.184,0.443
		c2.628,0,5.788-0.376,8.453-1.096c-0.532-0.17-1.104-0.312-1.673-0.453C27.092,9.846,25.605,9.583,24.198,9.413z"/>
	<path fill="#FFFFFF" d="M24.198,34.808c-0.118-0.015-0.237-0.029-0.355-0.042c-0.428-0.048-0.842-0.085-1.247-0.114
		c-0.654-0.045-1.304-0.08-1.915-0.08c-1.45,0-2.638,0.131-3.436,0.375c-0.196,0.062-0.343,0.125-0.468,0.189
		c-0.023,0.012-0.048,0.023-0.069,0.035c-0.106,0.061-0.189,0.122-0.249,0.182c-0.014,0.014-0.025,0.028-0.037,0.042
		c-0.11,0.127-0.14,0.25-0.14,0.35c0,0.145,0,0.581,1.271,0.948c0.989,0.286,2.475,0.441,4.184,0.441
		c2.627,0,5.788-0.377,8.453-1.092c-0.527-0.17-1.094-0.308-1.656-0.449C27.103,35.242,25.61,34.979,24.198,34.808z"/>
	<path fill="#FFFFFF" d="M24.198,43.272c-0.118-0.015-0.237-0.029-0.354-0.042c-0.428-0.048-0.843-0.086-1.248-0.116
		c-0.654-0.043-1.304-0.08-1.915-0.08c-1.45,0-2.638,0.132-3.436,0.377c-0.194,0.06-0.338,0.123-0.462,0.187
		c-0.026,0.014-0.055,0.027-0.078,0.04c-0.105,0.059-0.186,0.119-0.245,0.179c-0.015,0.016-0.027,0.029-0.04,0.045
		c-0.108,0.127-0.138,0.249-0.138,0.347c0,0.144,0,0.582,1.271,0.949c0.989,0.285,2.475,0.444,4.184,0.444
		c2.627,0,5.787-0.377,8.453-1.095c-0.527-0.169-1.095-0.309-1.656-0.45C27.102,43.708,25.61,43.441,24.198,43.272z"/>
	<path fill="#FFFFFF" d="M38.096,6.326c-0.003,0.024-0.015,0.049-0.018,0.073c-0.184-2.243-2.938-3.844-7.838-4.511
		C24.813,1.149,17.136,1.729,14.686,3.4l-0.007-0.002c-0.01,0.006-0.014,0.014-0.024,0.021c-0.192,0.133-0.361,0.271-0.482,0.419
		l1.989,0.615c0.003-0.005,0.008-0.007,0.011-0.01C17,3.396,23.881,2.405,29.747,3.204c0.338,0.046,0.684,0.101,1.032,0.163
		c0.14,0.026,0.28,0.059,0.42,0.087c0.208,0.042,0.416,0.082,0.62,0.131c0.158,0.038,0.308,0.084,0.462,0.126
		c0.183,0.05,0.366,0.097,0.544,0.154c0.154,0.05,0.298,0.108,0.445,0.164c0.164,0.061,0.329,0.119,0.483,0.187
		c0.141,0.062,0.267,0.134,0.398,0.204c0.141,0.073,0.282,0.145,0.409,0.225c0.12,0.077,0.222,0.163,0.329,0.246
		c0.11,0.087,0.222,0.173,0.316,0.268c0.092,0.093,0.162,0.193,0.234,0.293c0.077,0.102,0.151,0.205,0.207,0.316
		c0.054,0.108,0.088,0.225,0.119,0.341c0.05,0.169,0.105,0.336,0.105,0.524c0,1.34-1.388,2.435-3.419,3.262
		c-3.496-1.332-8.018-2.068-11.773-2.068c-1.805,0-3.345,0.181-4.457,0.525c-1.262,0.39-1.981,1.008-2.122,1.745
		c-0.005-0.019-0.021-0.035-0.025-0.054c-0.021,0.097-0.034,0.197-0.034,0.301c0,0,0,0.001,0,0.001c0,0.001,0,0.002,0,0.003
		c0,0.922,0.904,1.692,2.543,2.165c1.302,0.377,3.084,0.575,5.15,0.575c3.597,0,7.547-0.584,10.571-1.566
		c0.03-0.01,0.062-0.02,0.092-0.03c0.252,0.116,0.491,0.236,0.721,0.359c0.068,0.037,0.13,0.076,0.197,0.114
		c0.155,0.087,0.311,0.175,0.454,0.267c0.079,0.05,0.151,0.104,0.229,0.156c0.118,0.08,0.236,0.161,0.346,0.245
		c0.08,0.061,0.151,0.125,0.227,0.187c0.092,0.077,0.183,0.154,0.266,0.232c0.072,0.07,0.139,0.143,0.204,0.214
		c0.069,0.074,0.137,0.149,0.198,0.225c0.062,0.078,0.118,0.157,0.171,0.237c0.049,0.073,0.096,0.147,0.137,0.221
		c0.047,0.084,0.09,0.17,0.127,0.257c0.03,0.073,0.057,0.146,0.078,0.219c0.031,0.092,0.055,0.183,0.071,0.276
		c0.025,0.131,0.05,0.263,0.05,0.398c0,1.339-1.388,2.435-3.419,3.262c-3.496-1.332-8.018-2.068-11.773-2.068
		c-1.805,0-3.345,0.182-4.457,0.525c-1.262,0.39-1.981,1.008-2.122,1.746c-0.005-0.019-0.021-0.035-0.025-0.055
		c-0.021,0.099-0.034,0.199-0.034,0.301c0,0.001,0,0.001,0,0.003c0,0,0,0.001,0,0.002c0,0,0,0,0,0c0,0.693,0.508,1.299,1.453,1.758
		c0.316,0.153,0.68,0.29,1.09,0.408c1.302,0.375,3.084,0.574,5.15,0.574c3.597,0,7.547-0.585,10.571-1.566
		c0.03-0.01,0.062-0.021,0.092-0.031c0.252,0.117,0.494,0.238,0.725,0.362c0.058,0.03,0.107,0.062,0.162,0.093
		c0.168,0.094,0.333,0.188,0.487,0.286c0.077,0.049,0.146,0.1,0.22,0.15c0.121,0.082,0.241,0.165,0.353,0.25
		c0.08,0.06,0.148,0.122,0.223,0.183c0.094,0.079,0.187,0.157,0.27,0.237c0.072,0.069,0.137,0.14,0.202,0.211
		c0.071,0.075,0.139,0.151,0.201,0.228c0.062,0.077,0.115,0.155,0.168,0.233c0.051,0.075,0.098,0.149,0.14,0.225
		c0.046,0.084,0.087,0.168,0.124,0.254c0.032,0.073,0.059,0.148,0.083,0.223c0.028,0.09,0.052,0.18,0.068,0.271
		c0.025,0.133,0.05,0.265,0.05,0.4c0,1.339-1.388,2.434-3.419,3.262c-3.496-1.332-8.018-2.069-11.773-2.069
		c-1.805,0-3.345,0.182-4.457,0.524c-1.262,0.392-1.981,1.009-2.123,1.747c-0.004-0.019-0.021-0.035-0.025-0.055
		c-0.021,0.099-0.034,0.198-0.034,0.302c0,0,0,0.001,0,0.002v0.002c0,0.925,0.904,1.692,2.543,2.167
		c1.302,0.376,3.084,0.575,5.15,0.575c3.597,0,7.547-0.587,10.571-1.568c0.03-0.01,0.062-0.019,0.092-0.027
		c0.255,0.116,0.501,0.239,0.735,0.366c0.029,0.017,0.057,0.034,0.087,0.05c0.192,0.106,0.379,0.214,0.553,0.324
		c0.076,0.049,0.146,0.099,0.219,0.148c0.119,0.082,0.239,0.164,0.352,0.248c0.083,0.063,0.157,0.129,0.232,0.193
		c0.088,0.075,0.178,0.148,0.258,0.225c0.075,0.072,0.143,0.147,0.213,0.221c0.065,0.072,0.131,0.146,0.19,0.219
		c0.064,0.079,0.12,0.159,0.174,0.24c0.049,0.072,0.095,0.145,0.136,0.219c0.047,0.084,0.09,0.17,0.127,0.257
		c0.03,0.073,0.057,0.146,0.081,0.22c0.028,0.091,0.052,0.182,0.068,0.273c0.025,0.131,0.05,0.264,0.05,0.399
		c0,1.34-1.388,2.435-3.419,3.263c-3.496-1.332-8.018-2.068-11.773-2.068c-1.805,0-3.345,0.182-4.457,0.526
		c-1.261,0.389-1.98,1.007-2.122,1.743c-0.005-0.019-0.021-0.034-0.025-0.055c-0.021,0.099-0.034,0.199-0.034,0.302c0,0,0,0,0,0.004
		c0,0.002,0,0.002,0,0.002c0,0.923,0.904,1.69,2.543,2.166c1.302,0.376,3.084,0.575,5.15,0.575c3.597,0,7.547-0.587,10.571-1.567
		c0.03-0.011,0.062-0.02,0.092-0.032c0.248,0.116,0.486,0.235,0.714,0.358c0.09,0.046,0.17,0.097,0.255,0.146
		c0.134,0.076,0.27,0.153,0.395,0.232c0.096,0.061,0.183,0.123,0.274,0.187c0.101,0.07,0.205,0.139,0.301,0.212
		c0.091,0.07,0.172,0.142,0.257,0.214c0.081,0.068,0.162,0.136,0.236,0.205c0.079,0.077,0.152,0.155,0.224,0.234
		c0.062,0.068,0.124,0.137,0.183,0.206c0.063,0.082,0.122,0.165,0.178,0.248c0.049,0.07,0.092,0.141,0.131,0.212
		c0.049,0.087,0.092,0.174,0.129,0.263c0.03,0.071,0.057,0.144,0.078,0.217c0.031,0.09,0.055,0.182,0.071,0.275
		c0.025,0.131,0.05,0.263,0.05,0.397c0,1.339-1.388,2.434-3.419,3.264c-3.496-1.332-8.018-2.068-11.773-2.068
		c-1.805,0-3.345,0.182-4.457,0.522c-1.265,0.392-1.983,1.012-2.123,1.751c-0.005-0.019-0.021-0.033-0.025-0.053
		c-0.021,0.098-0.034,0.199-0.034,0.3c0,0.924,0.904,1.694,2.543,2.167c1.302,0.374,3.084,0.572,5.15,0.572
		c3.596,0,7.547-0.585,10.571-1.566c0.03-0.008,0.062-0.019,0.092-0.029c2.048,0.947,3.436,2.15,3.471,3.555l2.224-0.28
		c-0.179-1.59-1.627-2.951-3.744-4.033c0.442-0.205,0.836-0.423,1.203-0.646c0.039-0.022,0.076-0.045,0.113-0.068
		c0.223-0.139,0.431-0.281,0.626-0.427c0.094-0.069,0.19-0.14,0.276-0.209c0.074-0.062,0.139-0.127,0.21-0.189
		c0.754-0.674,1.129-1.335,1.263-1.946c0.003-0.016,0.01-0.031,0.013-0.046c0.04-0.195,0.062-0.386,0.062-0.568
		c0-0.103-0.009-0.201-0.019-0.301c-0.002,0.014-0.009,0.028-0.011,0.041c-0.144-1.619-1.589-3.006-3.736-4.105
		c0.81-0.375,1.481-0.782,2.038-1.214c0.045-0.034,0.095-0.069,0.138-0.104c0.145-0.118,0.271-0.237,0.396-0.358
		c0.639-0.61,0.972-1.207,1.104-1.765c0.009-0.033,0.022-0.065,0.031-0.099c0.034-0.183,0.053-0.361,0.056-0.534
		c0-0.01,0.003-0.017,0.003-0.025c0-0.001,0-0.001,0-0.002c0,0,0-0.001,0-0.003c0-0.103-0.009-0.203-0.019-0.303
		c-0.002,0.015-0.009,0.029-0.011,0.043c-0.145-1.615-1.592-3.001-3.736-4.101c0.814-0.376,1.492-0.788,2.051-1.223
		c0.04-0.03,0.082-0.06,0.121-0.091c0.152-0.123,0.286-0.251,0.419-0.38c0.449-0.433,0.751-0.858,0.93-1.269v-0.001
		c0.069-0.161,0.116-0.317,0.153-0.472c0.011-0.035,0.024-0.069,0.033-0.105c0.034-0.18,0.053-0.356,0.056-0.526
		c0-0.01,0.003-0.021,0.003-0.031c0-0.001,0-0.001,0-0.003c0,0,0-0.001,0-0.002c0-0.102-0.009-0.203-0.019-0.302
		c-0.002,0.014-0.009,0.028-0.011,0.042c-0.145-1.616-1.592-3.002-3.736-4.102c0.814-0.376,1.49-0.787,2.048-1.222
		c0.041-0.031,0.085-0.061,0.124-0.091c0.153-0.126,0.291-0.255,0.422-0.384c0.443-0.427,0.742-0.848,0.919-1.253
		c0.002-0.005,0.006-0.01,0.009-0.014c0.068-0.159,0.114-0.312,0.151-0.465c0.01-0.037,0.025-0.074,0.034-0.111
		c0.034-0.181,0.053-0.355,0.056-0.526c0-0.011,0.003-0.021,0.003-0.032c0-0.001,0-0.001,0-0.002s0-0.002,0-0.003
		c0-0.101-0.009-0.201-0.019-0.301c-0.002,0.014-0.009,0.029-0.011,0.042c-0.145-1.616-1.59-3.002-3.736-4.101
		c0.813-0.376,1.49-0.787,2.046-1.221c0.043-0.032,0.087-0.062,0.126-0.095c0.152-0.124,0.286-0.25,0.417-0.377
		c0.448-0.432,0.752-0.857,0.93-1.267c0-0.001,0.002-0.003,0.002-0.005c0.069-0.16,0.116-0.316,0.153-0.47
		c0.009-0.036,0.024-0.07,0.033-0.106c0.034-0.182,0.053-0.358,0.056-0.529c0-0.01,0.003-0.02,0.003-0.029c0-0.001,0-0.001,0-0.002
		c0-0.001,0-0.002,0-0.003C38.114,6.527,38.105,6.426,38.096,6.326z M21.736,11.742c-1.709,0-3.195-0.159-4.184-0.443
		c-1.271-0.367-1.271-0.806-1.271-0.949c0-0.099,0.03-0.221,0.14-0.349c0.011-0.015,0.023-0.029,0.038-0.043
		c0.06-0.06,0.142-0.12,0.248-0.18c0.022-0.012,0.048-0.024,0.073-0.037c0.125-0.063,0.271-0.126,0.466-0.188
		c0.798-0.246,1.986-0.377,3.436-0.377c0.613,0,1.267,0.037,1.924,0.081c0.396,0.03,0.802,0.067,1.221,0.113
		c0.124,0.013,0.249,0.029,0.373,0.043c1.407,0.169,2.894,0.433,4.317,0.78c0.568,0.142,1.141,0.283,1.673,0.453
		C27.523,11.366,24.364,11.742,21.736,11.742z M21.736,20.206c-1.709,0-3.195-0.157-4.184-0.443
		c-1.271-0.366-1.271-0.805-1.271-0.949c0-0.099,0.03-0.221,0.14-0.349c0.012-0.014,0.023-0.029,0.038-0.043
		c0.06-0.059,0.142-0.12,0.249-0.181c0.021-0.011,0.046-0.023,0.069-0.035c0.125-0.063,0.272-0.127,0.468-0.188
		c0.798-0.247,1.986-0.376,3.436-0.376c0.612,0,1.264,0.036,1.92,0.081c0.398,0.029,0.807,0.067,1.228,0.114
		c0.128,0.013,0.259,0.03,0.389,0.044c1.402,0.17,2.882,0.433,4.301,0.778c0.566,0.143,1.139,0.283,1.67,0.453
		C27.523,19.83,24.363,20.206,21.736,20.206z M21.736,28.67c-1.709,0-3.195-0.156-4.184-0.442c-1.271-0.368-1.271-0.805-1.271-0.949
		c0-0.098,0.03-0.219,0.137-0.345c0.014-0.017,0.026-0.032,0.042-0.048c0.059-0.059,0.141-0.119,0.245-0.178
		c0.023-0.014,0.05-0.025,0.074-0.038c0.125-0.062,0.271-0.126,0.465-0.186c0.798-0.249,1.986-0.378,3.436-0.378
		c0.611,0,1.261,0.036,1.917,0.08c0.401,0.029,0.814,0.067,1.239,0.114c0.123,0.013,0.248,0.029,0.372,0.043
		c1.403,0.17,2.883,0.432,4.304,0.777c0.569,0.145,1.142,0.284,1.677,0.456C27.523,28.295,24.364,28.67,21.736,28.67z
		 M21.736,37.134c-1.709,0-3.195-0.155-4.184-0.441c-1.271-0.367-1.271-0.804-1.271-0.948c0-0.1,0.03-0.223,0.14-0.35
		c0.012-0.014,0.023-0.028,0.037-0.042c0.06-0.06,0.143-0.121,0.249-0.182c0.021-0.012,0.046-0.023,0.069-0.035
		c0.125-0.064,0.272-0.128,0.468-0.189c0.798-0.244,1.986-0.375,3.436-0.375c0.611,0,1.261,0.035,1.915,0.08
		c0.405,0.029,0.819,0.066,1.247,0.114c0.118,0.013,0.237,0.027,0.355,0.042c1.412,0.171,2.904,0.435,4.334,0.785
		c0.562,0.142,1.129,0.279,1.656,0.449C27.523,36.757,24.363,37.134,21.736,37.134z M21.736,45.602
		c-1.709,0-3.195-0.159-4.184-0.444c-1.271-0.367-1.271-0.806-1.271-0.949c0-0.098,0.03-0.22,0.138-0.347
		c0.013-0.016,0.025-0.029,0.04-0.045c0.06-0.06,0.14-0.12,0.245-0.179c0.022-0.013,0.051-0.026,0.078-0.04
		c0.124-0.063,0.269-0.127,0.462-0.187c0.798-0.245,1.986-0.377,3.436-0.377c0.611,0,1.261,0.037,1.915,0.08
		c0.405,0.03,0.82,0.068,1.248,0.116c0.117,0.013,0.236,0.027,0.354,0.042c1.413,0.169,2.904,0.436,4.334,0.784
		c0.562,0.142,1.129,0.281,1.656,0.45C27.522,45.225,24.363,45.602,21.736,45.602z"/>
</g>
</svg>
