<?xml version="1.0" encoding="utf-8"?>
<!-- Generator: Adobe Illustrator 16.0.0, SVG Export Plug-In . SVG Version: 6.00 Build 0)  -->
<!DOCTYPE svg PUBLIC "-//W3C//DTD SVG 1.1//EN" "http://www.w3.org/Graphics/SVG/1.1/DTD/svg11.dtd">
<svg version="1.1" id="Layer_1" xmlns="http://www.w3.org/2000/svg" xmlns:xlink="http://www.w3.org/1999/xlink" x="0px" y="0px"
	 width="60px" height="60px" viewBox="0 0 60 60" enable-background="new 0 0 60 60" xml:space="preserve">
<title>Champagne Glasses</title>
<desc>Created with Sketch.</desc>
<g id="Page-1">
	<g id="Icons" transform="translate(-480.000000, -2757.000000)">
		<g id="Group" transform="translate(481.000000, 2758.000000)">
			<path id="Stroke-373" fill="none" stroke="#FFFFFF" stroke-width="2" d="M19.533,8.002c-0.302,12.249-2.438,38-9.533,38
				s-9.231-25.751-9.533-38H19.533L19.533,8.002z M5.102,58.002c-0.667,0-1.095-0.7-0.806-1.301C4.781,55.695,5.809,55.002,7,55.002
				h6c1.191,0,2.219,0.693,2.704,1.699c0.29,0.601-0.139,1.301-0.806,1.301H5.102L5.102,58.002z M10,46.002v9V46.002z"/>
			<path id="Fill-374" fill="#231F20" stroke="#FFFFFF" stroke-miterlimit="10" d="M8,29.502c0,0.828-0.672,1.5-1.5,1.5
				S5,30.33,5,29.502c0-0.829,0.672-1.5,1.5-1.5S8,28.673,8,29.502"/>
			<path id="Fill-375" fill="#231F20" stroke="#FFFFFF" stroke-miterlimit="10" d="M14,32.502c0,0.828-0.672,1.5-1.5,1.5
				s-1.5-0.672-1.5-1.5c0-0.829,0.672-1.5,1.5-1.5S14,31.673,14,32.502"/>
			<path id="Fill-376" fill="#231F20" stroke="#FFFFFF" stroke-miterlimit="10" d="M10,36.502c0,0.828-0.672,1.5-1.5,1.5
				S7,37.33,7,36.502c0-0.829,0.672-1.5,1.5-1.5S10,35.673,10,36.502"/>
			<path id="Stroke-377" fill="none" stroke="#FFFFFF" stroke-width="2" d="M39.521,6.896c5.074,11.154,14.39,35.254,8.006,38.351
				c-6.385,3.097-19.543-19.14-25.16-30.03L39.521,6.896L39.521,6.896z M48.02,57.945c-0.319,0.154-0.717-0.021-0.797-0.367
				c-0.304-1.331,0.336-2.744,1.617-3.365l5.398-2.619c1.281-0.621,2.787-0.248,3.644,0.814c0.224,0.277,0.115,0.697-0.205,0.853
				L48.02,57.945L48.02,57.945z M47.527,45.247l4.012,7.657L47.527,45.247z"/>
			<path id="Fill-378" fill="#231F20" stroke="#FFFFFF" stroke-miterlimit="10" d="M38.527,31.273
				c0.361,0.746,0.051,1.644-0.695,2.004c-0.745,0.363-1.643,0.052-2.004-0.694c-0.362-0.745-0.051-1.642,0.695-2.004
				C37.268,30.218,38.166,30.529,38.527,31.273"/>
			<path id="Fill-379" fill="#231F20" stroke="#FFFFFF" stroke-miterlimit="10" d="M45.234,31.355
				c0.361,0.744,0.051,1.643-0.694,2.004c-0.746,0.361-1.644,0.051-2.004-0.695c-0.362-0.745-0.052-1.643,0.694-2.004
				S44.873,30.609,45.234,31.355"/>
			<path id="Fill-380" fill="#231F20" stroke="#FFFFFF" stroke-miterlimit="10" d="M43.381,36.7
				c0.362,0.745,0.051,1.642-0.695,2.004c-0.744,0.36-1.642,0.05-2.004-0.695c-0.361-0.745-0.05-1.643,0.695-2.004
				C42.123,35.643,43.02,35.954,43.381,36.7"/>
			<path id="Stroke-503" fill="none" stroke="#FFFFFF" stroke-width="2" stroke-linecap="round" d="M22,0.002v4 M26,5.002l3-3
				 M28,8.002h3 M18,5.002l-3-3"/>
			<path id="Stroke-504" fill="none" stroke="#FFFFFF" stroke-width="2" stroke-linecap="round" d="M2,24.002h16 M30,28.002h17"/>
		</g>
	</g>
</g>
</svg>
