<?xml version="1.0" encoding="utf-8"?>
<!-- Generator: Adobe Illustrator 16.0.0, SVG Export Plug-In . SVG Version: 6.00 Build 0)  -->
<!DOCTYPE svg PUBLIC "-//W3C//DTD SVG 1.1//EN" "http://www.w3.org/Graphics/SVG/1.1/DTD/svg11.dtd">
<svg version="1.1" id="Layer_1" xmlns="http://www.w3.org/2000/svg" xmlns:xlink="http://www.w3.org/1999/xlink" x="0px" y="0px"
	 width="50px" height="50px" viewBox="0 0 50 50" enable-background="new 0 0 50 50" xml:space="preserve">
<path fill="#FFFFFF" d="M38.334,18.375c-1.705-2.782-5.302-3.619-8.021-1.923c-1.559-2.035-4.166-2.762-6.457-1.991V5.884
	C23.856,2.64,21.24,0,18.024,0c-3.215,0-5.832,2.64-5.832,5.884v17.764c-1.986-1.335-4.646-1.356-6.678,0.144
	c-2.594,1.915-3.161,5.574-1.283,8.196l11.159,15.576C16.485,49.09,18.251,50,20.117,50h18.137c2.706,0,5.061-1.885,5.678-4.544
	l2.79-12.036c0.103-0.439,0.153-0.889,0.153-1.34v-8.496C46.875,19.154,42.187,16.327,38.334,18.375z M11.142,26.913l2.76,3.851
	c0,0.432,0.35,0.781,0.781,0.781c0.432,0,0.781-0.35,0.781-0.781c0-0.163-0.051-0.322-0.146-0.454V5.884
	c0-3.647,5.413-3.653,5.413,0v17.7c0,0.432,0.35,0.781,0.781,0.781h0.698c0.432,0,0.781-0.35,0.781-0.781v-3.54
	c0-3.647,5.413-3.653,5.413,0v3.54c0,0.432,0.35,0.781,0.781,0.781h0.697c0.432,0,0.781-0.35,0.781-0.781V21.46
	c0-3.647,5.413-3.653,5.413,0v2.124c0,0.432,0.35,0.781,0.781,0.781h0.697c0.432,0,0.781-0.35,0.781-0.781
	c0-3.647,5.413-3.653,5.413,0v8.496c0,0.213-0.024,0.427-0.072,0.635L40.887,44.75c-0.289,1.252-1.373,2.125-2.633,2.125H20.117
	c-0.861,0-1.678-0.423-2.186-1.132L6.771,30.167C4.602,27.14,9.095,24.056,11.142,26.913z M20.731,39.16v-8.496
	c0-0.432,0.35-0.781,0.781-0.781h0.698c0.431,0,0.781,0.35,0.781,0.781v8.496c0,0.432-0.35,0.781-0.781,0.781h-0.698
	C21.081,39.941,20.731,39.592,20.731,39.16z M28.404,39.16v-8.496c0-0.432,0.35-0.781,0.781-0.781h0.697
	c0.432,0,0.781,0.35,0.781,0.781v8.496c0,0.432-0.35,0.781-0.781,0.781h-0.697C28.754,39.941,28.404,39.592,28.404,39.16z
	 M36.077,39.16v-8.496c0-0.432,0.35-0.781,0.781-0.781h0.697c0.432,0,0.781,0.35,0.781,0.781v8.496c0,0.432-0.35,0.781-0.781,0.781
	h-0.697C36.427,39.941,36.077,39.592,36.077,39.16z"/>
</svg>
