<?xml version="1.0" encoding="utf-8"?>
<!-- Generator: Adobe Illustrator 16.0.0, SVG Export Plug-In . SVG Version: 6.00 Build 0)  -->
<!DOCTYPE svg PUBLIC "-//W3C//DTD SVG 1.1//EN" "http://www.w3.org/Graphics/SVG/1.1/DTD/svg11.dtd">
<svg version="1.1" xmlns="http://www.w3.org/2000/svg" xmlns:xlink="http://www.w3.org/1999/xlink" x="0px" y="0px" width="211px"
	 height="210px" viewBox="0 0 211 210" enable-background="new 0 0 211 210" xml:space="preserve">
<g id="Layer_1">
	<title>12</title>
	<desc>Created with Sketch.</desc>
	<g id="Page-1">
		<g id="Artboard" transform="translate(-771.000000, -1071.000000)">
			<g id="celestial-bodies" transform="translate(123.000000, 136.000000)">
				<path id="_x31_2" fill="#FFFFFF" d="M686.25,1059.968c5.559-4.854,16.881-7.653,32.741-7.653h0.078
					c8.878,0,16.906,1.041,20.737,1.508c0.826,13.293,0.592,41.78-7.86,53.412c-1.989-7.643-8.191-13.686-16.386-15.246
					c-11.38-2.166-22.392,5.357-24.556,16.731c-0.276,1.449-0.387,2.937-0.355,4.406c-2.756-1.696-5.306-3.931-7.544-6.492
					C671.136,1092.929,672.545,1071.939,686.25,1059.968 M697.073,1116.178c-0.501-2.068-0.579-4.184-0.175-6.309
					c0.749-3.937,2.986-7.344,6.299-9.599c3.314-2.253,7.306-3.081,11.241-2.333c7.024,1.338,12.008,7.334,12.185,14.311
					C717.789,1118.318,706.765,1119.548,697.073,1116.178 M678.585,1110.697c7.701,8.815,18.521,13.326,29.398,13.326
					c9.106,0,18.251-3.162,25.631-9.609c15.934-13.917,12.165-61.27,11.996-63.278l-0.197-2.362l-2.345-0.572
					c-0.452-0.068-11.209-1.887-24-1.887h-0.005c-17.62,0-29.989,3.219-36.761,9.135
					C666.106,1069.596,664.439,1094.501,678.585,1110.697z M695.299,1070.445c0.616-1.906,1.937-3.459,3.721-4.371
					c1.073-0.549,2.236-0.827,3.407-0.827c0.775,0,1.555,0.122,2.313,0.366c3.935,1.271,6.102,5.507,4.831,9.441
					c-0.616,1.906-1.937,3.458-3.72,4.371c-1.783,0.912-3.817,1.075-5.721,0.46c-1.906-0.614-3.458-1.937-4.37-3.72
					C694.848,1074.383,694.685,1072.352,695.299,1070.445z M698.286,1085.596c1.374,0.444,2.768,0.654,4.14,0.654
					c5.699,0,11.011-3.643,12.854-9.352c2.289-7.082-1.613-14.705-8.696-16.994c-3.431-1.107-7.089-0.813-10.298,0.828
					c-3.21,1.644-5.588,4.438-6.696,7.869C687.302,1075.684,691.204,1083.308,698.286,1085.596z M669.816,1122.497
					c-10.199-10.199-15.816-23.76-15.816-38.185c0-14.422,5.617-27.983,15.816-38.183l-4.242-4.243
					c-11.333,11.332-17.574,26.4-17.574,42.426c0,16.027,6.241,31.096,17.574,42.428c11.696,11.697,27.061,17.545,42.426,17.545
					c15.364,0,30.729-5.848,42.425-17.545l-4.242-4.243C725.129,1143.551,690.871,1143.553,669.816,1122.497z M676,1039.313
					c1.657,0,3-1.343,3-3s-1.343-3-3-3c-1.657,0-3,1.343-3,3S674.343,1039.313,676,1039.313z M817,1059.313c-1.657,0-3,1.343-3,3
					s1.343,3,3,3c1.656,0,3-1.343,3-3S818.656,1059.313,817,1059.313z M844,984.313c1.656,0,3-1.343,3-3s-1.344-3-3-3
					c-1.657,0-3,1.343-3,3S842.343,984.313,844,984.313z M796.91,939.627L793.09,935l-110.916,91.576l3.82,4.627L796.91,939.627z
					 M745.849,1009.553l81.061-66.926L823.09,938l-81.061,66.926L745.849,1009.553z M721.46,1029.689l14.269-11.78l-3.821-4.627
					l-14.268,11.78L721.46,1029.689z M741.173,1033.576l3.82,4.627l35.581-29.377l-3.82-4.627L741.173,1033.576z M758.832,1055.033
					l77.752-64.194l-3.819-4.627l-77.752,64.194L758.832,1055.033z M817.967,1036.21l40.936-33.577l-3.805-4.639l-40.937,33.577
					L817.967,1036.21z M767.078,1078.226l39.096-32.278l-3.821-4.628l-39.095,32.279L767.078,1078.226z M752.987,1115.589
					l4.025,4.449l52.5-47.5l-4.025-4.449L752.987,1115.589z M823.641,1052.062l3.819,4.627l14.269-11.78l-3.819-4.627
					L823.641,1052.062z"/>
			</g>
		</g>
	</g>
</g>
<g id="Layer_1_copy">
	<title>12</title>
	<desc>Created with Sketch.</desc>
	<g id="Page-1_1_">
		<g id="Artboard_1_" transform="translate(-771.000000, -1071.000000)">
			<g id="celestial-bodies_1_" transform="translate(123.000000, 136.000000)">
				<path id="_x31_2_1_" fill="#FFFFFF" d="M686.25,1059.968c5.559-4.854,16.881-7.653,32.741-7.653h0.078
					c8.878,0,16.906,1.041,20.737,1.508c0.826,13.293,0.592,41.78-7.86,53.412c-1.989-7.643-8.191-13.686-16.386-15.246
					c-11.38-2.166-22.392,5.357-24.556,16.731c-0.276,1.449-0.387,2.937-0.355,4.406c-2.756-1.696-5.306-3.931-7.544-6.492
					C671.136,1092.929,672.545,1071.939,686.25,1059.968 M697.073,1116.178c-0.501-2.068-0.579-4.184-0.175-6.309
					c0.749-3.937,2.986-7.344,6.299-9.599c3.314-2.253,7.306-3.081,11.241-2.333c7.024,1.338,12.008,7.334,12.185,14.311
					C717.789,1118.318,706.765,1119.548,697.073,1116.178 M678.585,1110.697c7.701,8.815,18.521,13.326,29.398,13.326
					c9.106,0,18.251-3.162,25.631-9.609c15.934-13.917,12.165-61.27,11.996-63.278l-0.197-2.362l-2.345-0.572
					c-0.452-0.068-11.209-1.887-24-1.887h-0.005c-17.62,0-29.989,3.219-36.761,9.135
					C666.106,1069.596,664.439,1094.501,678.585,1110.697z M695.299,1070.445c0.616-1.906,1.937-3.459,3.721-4.371
					c1.073-0.549,2.236-0.827,3.407-0.827c0.775,0,1.555,0.122,2.313,0.366c3.935,1.271,6.102,5.507,4.831,9.441
					c-0.616,1.906-1.937,3.458-3.72,4.371c-1.783,0.912-3.817,1.075-5.721,0.46c-1.906-0.614-3.458-1.937-4.37-3.72
					C694.848,1074.383,694.685,1072.352,695.299,1070.445z M698.286,1085.596c1.374,0.444,2.768,0.654,4.14,0.654
					c5.699,0,11.011-3.643,12.854-9.352c2.289-7.082-1.613-14.705-8.696-16.994c-3.431-1.107-7.089-0.813-10.298,0.828
					c-3.21,1.644-5.588,4.438-6.696,7.869C687.302,1075.684,691.204,1083.308,698.286,1085.596z M669.816,1122.497
					c-10.199-10.199-15.816-23.76-15.816-38.185c0-14.422,5.617-27.983,15.816-38.183l-4.242-4.243
					c-11.333,11.332-17.574,26.4-17.574,42.426c0,16.027,6.241,31.096,17.574,42.428c11.696,11.697,27.061,17.545,42.426,17.545
					c15.364,0,30.729-5.848,42.425-17.545l-4.242-4.243C725.129,1143.551,690.871,1143.553,669.816,1122.497z M676,1039.313
					c1.657,0,3-1.343,3-3s-1.343-3-3-3c-1.657,0-3,1.343-3,3S674.343,1039.313,676,1039.313z M817,1059.313c-1.657,0-3,1.343-3,3
					s1.343,3,3,3c1.656,0,3-1.343,3-3S818.656,1059.313,817,1059.313z M844,984.313c1.656,0,3-1.343,3-3s-1.344-3-3-3
					c-1.657,0-3,1.343-3,3S842.343,984.313,844,984.313z M796.91,939.627L793.09,935l-110.916,91.576l3.82,4.627L796.91,939.627z
					 M745.849,1009.553l81.061-66.926L823.09,938l-81.061,66.926L745.849,1009.553z M721.46,1029.689l14.269-11.78l-3.821-4.627
					l-14.268,11.78L721.46,1029.689z M741.173,1033.576l3.82,4.627l35.581-29.377l-3.82-4.627L741.173,1033.576z M758.832,1055.033
					l77.752-64.194l-3.819-4.627l-77.752,64.194L758.832,1055.033z M817.967,1036.21l40.936-33.577l-3.805-4.639l-40.937,33.577
					L817.967,1036.21z M767.078,1078.226l39.096-32.278l-3.821-4.628l-39.095,32.279L767.078,1078.226z M752.987,1115.589
					l4.025,4.449l52.5-47.5l-4.025-4.449L752.987,1115.589z M823.641,1052.062l3.819,4.627l14.269-11.78l-3.819-4.627
					L823.641,1052.062z"/>
			</g>
		</g>
	</g>
</g>
</svg>
