<?xml version="1.0" encoding="utf-8"?>
<!-- Generator: Adobe Illustrator 16.0.0, SVG Export Plug-In . SVG Version: 6.00 Build 0)  -->
<!DOCTYPE svg PUBLIC "-//W3C//DTD SVG 1.1//EN" "http://www.w3.org/Graphics/SVG/1.1/DTD/svg11.dtd">
<svg version="1.1" id="Capa_1" xmlns="http://www.w3.org/2000/svg" xmlns:xlink="http://www.w3.org/1999/xlink" x="0px" y="0px"
	 width="55.047px" height="55.047px" viewBox="0 0 55.047 55.047" enable-background="new 0 0 55.047 55.047" xml:space="preserve">
<g>
	<path fill="#FFFFFF" d="M0,4.663c0-1.738,1.409-3.147,3.146-3.147h13.373c1.738,0,3.146,1.409,3.146,3.147
		c0,1.738-1.408,3.147-3.146,3.147H3.146C1.409,7.81,0,6.401,0,4.663z M35.381,4.664c0-1.738,1.409-3.147,3.146-3.147H51.9
		c1.736,0,3.146,1.409,3.146,3.147c0,1.738-1.407,3.147-3.146,3.147H38.529C36.791,7.811,35.381,6.401,35.381,4.664z M11.161,37.161
		c0,9.026,7.34,16.37,16.363,16.37c9.022,0,16.363-7.344,16.363-16.37c0-9.024-7.341-16.366-16.363-16.366
		C18.501,20.795,11.161,28.136,11.161,37.161z M27.524,26.456c5.901,0,10.703,4.802,10.703,10.705
		c0,5.905-4.802,10.709-10.703,10.709c-5.902,0-10.704-4.806-10.704-10.709S21.622,26.456,27.524,26.456z"/>
</g>
</svg>
