<?xml version="1.0" encoding="utf-8"?>
<!-- Generator: Adobe Illustrator 16.0.0, SVG Export Plug-In . SVG Version: 6.00 Build 0)  -->
<!DOCTYPE svg PUBLIC "-//W3C//DTD SVG 1.1//EN" "http://www.w3.org/Graphics/SVG/1.1/DTD/svg11.dtd">
<svg version="1.1" id="Capa_1" xmlns="http://www.w3.org/2000/svg" xmlns:xlink="http://www.w3.org/1999/xlink" x="0px" y="0px"
	 width="53.254px" height="53.256px" viewBox="0 0 53.254 53.256" enable-background="new 0 0 53.254 53.256" xml:space="preserve">
<g>
	<path fill="#FFFFFF" d="M18.462,51.797c1.339,0.479,2.721,0.849,4.132,1.097c1.343,0.233,2.713,0.362,4.105,0.362
		c1.34,0,2.663-0.127,3.959-0.354c1.41-0.248,2.793-0.614,4.135-1.102c7.785-2.818,14.248-9.408,17.469-16.85
		c0.191-0.443,0.146-0.953-0.117-1.355c-0.266-0.404-0.714-0.646-1.195-0.646L2.312,32.892c-0.001,0-0.002,0-0.002,0
		c-0.479,0-0.926,0.236-1.192,0.637c-0.266,0.397-0.315,0.904-0.131,1.348C4.092,42.353,10.564,48.969,18.462,51.797z
		 M30.575,48.808c-1.266,0.281-2.559,0.448-3.875,0.448c-1.366,0-2.705-0.172-4.014-0.464c-0.688-0.152-1.366-0.348-2.034-0.566
		c1.146-2.47,3.649-4.045,5.977-4.045c2.331,0,4.836,1.579,5.98,4.053C31.941,48.457,31.262,48.651,30.575,48.808z M46.633,36.942
		c-2.203,3.271-5.242,6.423-8.787,8.72c-2.23-3.271-6.41-5.481-11.218-5.481c-4.813,0-8.998,2.217-11.229,5.495
		c-3.6-2.308-6.658-5.479-8.832-8.78L46.633,36.942z M6.839,6.201C6.839,2.777,9.616,0,13.04,0c3.423,0,6.2,2.777,6.2,6.201
		c0,3.426-2.777,6.203-6.2,6.203C9.616,12.404,6.839,9.626,6.839,6.201z M34.958,6.201C34.958,2.777,37.737,0,41.161,0
		c3.422,0,6.199,2.777,6.199,6.201c0,3.426-2.777,6.203-6.199,6.203C37.737,12.404,34.958,9.626,34.958,6.201z"/>
</g>
</svg>
