<?xml version="1.0" encoding="utf-8"?>
<!-- Generator: Adobe Illustrator 16.0.0, SVG Export Plug-In . SVG Version: 6.00 Build 0)  -->
<!DOCTYPE svg PUBLIC "-//W3C//DTD SVG 1.1//EN" "http://www.w3.org/Graphics/SVG/1.1/DTD/svg11.dtd">
<svg version="1.1" id="Capa_1" xmlns="http://www.w3.org/2000/svg" xmlns:xlink="http://www.w3.org/1999/xlink" x="0px" y="0px"
	 width="64.08px" height="64.08px" viewBox="0 0 64.08 64.08" enable-background="new 0 0 64.08 64.08" xml:space="preserve">
<g>
	<path fill="#FFFFFF" d="M0,16.719V16.31c0-4.844,3.403-8.771,7.6-8.771h12.982c3.397,0,6.273,2.574,7.246,6.125h8.423
		c0.973-3.55,3.85-6.125,7.245-6.125h12.983c4.196,0,7.601,3.926,7.601,8.771v0.409c0,4.844-3.403,8.771-7.601,8.771H43.496
		c-4.127,0-7.479-3.8-7.588-8.533h-7.737c-0.11,4.733-3.462,8.533-7.589,8.533H7.599C3.403,25.49,0,21.563,0,16.719z M54.558,41.912
		c-3.843,8.887-12.843,14.629-22.928,14.629c-10.301,0-19.354-5.771-23.064-14.703c-0.636-1.528,0.089-3.284,1.62-3.921
		c0.376-0.154,0.766-0.229,1.15-0.229c1.176,0,2.292,0.694,2.771,1.85c2.777,6.686,9.655,11.004,17.523,11.004
		c7.689,0,14.528-4.322,17.421-11.011c0.658-1.521,2.425-2.222,3.943-1.563C54.517,38.625,55.216,40.392,54.558,41.912z"/>
</g>
</svg>
