<?xml version="1.0" encoding="utf-8"?>
<!-- Generator: Adobe Illustrator 16.0.0, SVG Export Plug-In . SVG Version: 6.00 Build 0)  -->
<!DOCTYPE svg PUBLIC "-//W3C//DTD SVG 1.1//EN" "http://www.w3.org/Graphics/SVG/1.1/DTD/svg11.dtd">
<svg version="1.1" id="Capa_1" xmlns="http://www.w3.org/2000/svg" xmlns:xlink="http://www.w3.org/1999/xlink" x="0px" y="0px"
	 width="61.725px" height="61.725px" viewBox="0 0 61.725 61.725" enable-background="new 0 0 61.725 61.725" xml:space="preserve">
<g>
	<path fill="#FFFFFF" d="M0,13.073c0-1.738,1.409-3.147,3.147-3.147L16.52,9.925c0.026,0,0.054,0.008,0.081,0.009
		c1.609-0.019,3.226,0.581,4.453,1.809c2.423,2.423,2.423,6.35,0.003,8.771c-2.422,2.42-6.35,2.42-8.771-0.003
		c-1.186-1.187-1.782-2.735-1.806-4.292H3.147C1.409,16.22,0,14.811,0,13.073z M38.852,13.167c0-1.737,1.41-3.146,3.146-3.146
		l13.373-0.001c0.028,0,0.054,0.007,0.081,0.008c1.609-0.019,3.228,0.581,4.453,1.809c2.423,2.423,2.423,6.351,0.003,8.771
		c-2.421,2.42-6.349,2.42-8.771-0.002c-1.188-1.188-1.782-2.736-1.808-4.292h-7.333C40.262,16.314,38.852,14.905,38.852,13.167z
		 M9.676,38.829c9.86,0.312,32.958,1.908,34.469,10.011c0.254,1.356-0.644,2.663-2,2.916c-0.153,0.028-0.31,0.043-0.461,0.043
		c-1.181,0-2.229-0.84-2.455-2.042c-0.004-0.024-1.084-2.694-14.428-4.593c-7.636-1.086-15.207-1.334-15.282-1.337
		c-1.38-0.043-2.463-1.197-2.42-2.577c0.043-1.354,1.152-2.421,2.498-2.421C9.622,38.827,9.648,38.828,9.676,38.829z"/>
</g>
</svg>
