<?xml version="1.0" encoding="utf-8"?>
<!-- Generator: Adobe Illustrator 16.0.0, SVG Export Plug-In . SVG Version: 6.00 Build 0)  -->
<!DOCTYPE svg PUBLIC "-//W3C//DTD SVG 1.1//EN" "http://www.w3.org/Graphics/SVG/1.1/DTD/svg11.dtd">
<svg version="1.1" id="Layer_1" xmlns="http://www.w3.org/2000/svg" xmlns:xlink="http://www.w3.org/1999/xlink" x="0px" y="0px"
	 width="50px" height="50px" viewBox="0 0 50 50" enable-background="new 0 0 50 50" xml:space="preserve">
<path fill="#FFFFFF" d="M47.223,19.444V5.556c0-1.537-1.242-2.778-2.778-2.778C38.803,7.639,29.34,13.889,18.056,13.889H4.167
	c-2.3,0-4.167,1.867-4.167,4.167v8.333c0,2.301,1.866,4.167,4.167,4.167h1.458c-0.46,5.087,1.302,9.288,2.509,13.159
	c0.13,0.435,0.373,0.825,0.694,1.146c1.502,1.502,3.568,2.361,5.668,2.361c2.76,0,5.287-1.477,6.554-4.141
	c0.608-1.276,0.165-2.805-1.033-3.551c-2.422-1.51-2.778-1.953-2.327-2.734c0.599-1.051,0.452-2.369-0.365-3.264
	c-0.46-0.504-0.113-2.379,0.955-2.978c11.189,0.078,20.564,6.284,26.172,11.11c1.537,0,2.777-1.24,2.777-2.777V25
	c1.537,0,2.778-1.241,2.778-2.778S48.759,19.444,47.223,19.444z M18.55,41.884c-1.51,3.186-5.512,3.247-7.76,1.007
	c-1.198-3.863-2.856-7.743-2.37-12.335h6.398c-0.721,1.667-0.66,3.654,0.46,4.86C13.55,38.429,15.972,40.277,18.55,41.884z
	 M2.778,26.389v-8.333c0-0.764,0.625-1.389,1.389-1.389h15.278v11.111H4.167C3.403,27.777,2.778,27.152,2.778,26.389z
	 M44.444,38.056c-3.177-2.526-6.484-4.636-9.87-6.268c-4.105-1.987-8.246-3.247-12.352-3.75V16.406
	c4.106-0.512,8.247-1.762,12.352-3.75c3.377-1.641,6.693-3.741,9.87-6.268V38.056z"/>
</svg>
