<?xml version="1.0" encoding="utf-8"?>
<!-- Generator: Adobe Illustrator 16.0.0, SVG Export Plug-In . SVG Version: 6.00 Build 0)  -->
<!DOCTYPE svg PUBLIC "-//W3C//DTD SVG 1.1//EN" "http://www.w3.org/Graphics/SVG/1.1/DTD/svg11.dtd">
<svg version="1.1" id="Layer_1" xmlns="http://www.w3.org/2000/svg" xmlns:xlink="http://www.w3.org/1999/xlink" x="0px" y="0px"
	 width="50px" height="50px" viewBox="0 0 50 50" enable-background="new 0 0 50 50" xml:space="preserve">
<path fill="#FFFFFF" d="M36.875,14.375C42.75,14.375,47.5,19.125,47.5,25s-4.75,10.625-10.625,10.625
	c-3.289,0-6.25-1.875-7.578-3.125h-8.594c-1.328,1.25-3.367,3.125-7.578,3.125C7.25,35.625,2.5,30.875,2.5,25
	s4.75-10.625,10.625-10.625H36.875 M36.875,11.875h-23.75C5.875,11.875,0,17.75,0,25s5.875,13.125,13.125,13.125
	c3.242,0,6.211-1.18,8.5-3.125h6.75c2.289,1.945,5.258,3.125,8.5,3.125C44.125,38.125,50,32.25,50,25S44.125,11.875,36.875,11.875z
	 M40,19.688c-1.555,0-2.812,1.258-2.812,2.812s1.258,2.812,2.812,2.812s2.812-1.258,2.812-2.812S41.555,19.688,40,19.688z
	 M35,24.688c-1.555,0-2.812,1.258-2.812,2.812s1.258,2.812,2.812,2.812s2.812-1.258,2.812-2.812S36.555,24.688,35,24.688z
	 M14.062,23.438v-3.594c0-0.258-0.211-0.469-0.469-0.469h-2.188c-0.258,0-0.469,0.211-0.469,0.469v3.594H7.344
	c-0.258,0-0.469,0.211-0.469,0.469v2.188c0,0.258,0.211,0.469,0.469,0.469h3.594v3.594c0,0.258,0.211,0.469,0.469,0.469h2.188
	c0.258,0,0.469-0.211,0.469-0.469v-3.594h3.594c0.258,0,0.469-0.211,0.469-0.469v-2.188c0-0.258-0.211-0.469-0.469-0.469H14.062z"/>
</svg>
