<?xml version="1.0" encoding="utf-8"?>
<!-- Generator: Adobe Illustrator 16.0.0, SVG Export Plug-In . SVG Version: 6.00 Build 0)  -->
<!DOCTYPE svg PUBLIC "-//W3C//DTD SVG 1.1//EN" "http://www.w3.org/Graphics/SVG/1.1/DTD/svg11.dtd">
<svg version="1.1" id="Layer_1" xmlns="http://www.w3.org/2000/svg" xmlns:xlink="http://www.w3.org/1999/xlink" x="0px" y="0px"
	 width="60px" height="58px" viewBox="0 0 60 58" enable-background="new 0 0 60 58" xml:space="preserve">
<title>Angel</title>
<desc>Created with Sketch.</desc>
<g id="Page-1">
	<g id="Icons" transform="translate(-960.000000, -3358.000000)">
		<g id="Stroke-955" transform="translate(961.000000, 3359.000000)">
			<path fill="none" stroke="#FFFFFF" stroke-width="3" stroke-linejoin="round" d="M22.649,18.301
				c-1.535-2.025-4.047-4.432-9.325-5.211c-5.126-0.756-9.761,3.356-9.337,8.52c0.121,1.473,0.538,3.179,1.37,5.151
				c0,0,8.392,28.509-5.357,28.509c0,0,6.985,1.629,13.893-3.889c2.156-1.723,3.806-3.865,4.975-6.259
				c1.583-3.242,2.075-6.909,1.657-10.492c-0.394-3.375-0.476-8.612,2.199-11.288C24.033,22.033,23.767,19.776,22.649,18.301
				L22.649,18.301z M35.352,18.301c1.535-2.025,4.047-4.432,9.324-5.211c5.126-0.756,9.762,3.356,9.338,8.52
				c-0.121,1.473-0.539,3.179-1.371,5.151c0,0-8.392,28.509,5.357,28.509c0,0-6.984,1.629-13.893-3.889
				c-2.156-1.723-3.808-3.865-4.977-6.259c-1.583-3.242-2.074-6.909-1.656-10.492c0.395-3.375,0.477-8.612-2.199-11.288
				C33.967,22.033,34.232,19.776,35.352,18.301L35.352,18.301z M43.616,6c0,3.314-6.567,6-14.667,6c-8.1,0-14.667-2.686-14.667-6
				s6.567-6,14.667-6C37.049,0,43.616,2.686,43.616,6L43.616,6z M28.949,8c-4.327,0-7.552-0.841-9.335-1.653
				c-0.296-0.135-0.296-0.559,0-0.694C21.397,4.841,24.622,4,28.949,4c4.326,0,7.552,0.841,9.336,1.653
				c0.295,0.135,0.295,0.559,0,0.694C36.501,7.159,33.275,8,28.949,8L28.949,8z"/>
		</g>
	</g>
</g>
</svg>
