<?xml version="1.0" encoding="utf-8"?>
<!-- Generator: Adobe Illustrator 16.0.0, SVG Export Plug-In . SVG Version: 6.00 Build 0)  -->
<!DOCTYPE svg PUBLIC "-//W3C//DTD SVG 1.1//EN" "http://www.w3.org/Graphics/SVG/1.1/DTD/svg11.dtd">
<svg version="1.1" id="Capa_1" xmlns="http://www.w3.org/2000/svg" xmlns:xlink="http://www.w3.org/1999/xlink" x="0px" y="0px"
	 width="50px" height="50px" viewBox="0 0 50 50" enable-background="new 0 0 50 50" xml:space="preserve">
<g>
	<g>
		<path fill="#FFFFFF" d="M47.203,17.855c-1.219,0-2.258,0.784-2.64,1.874h-6.218c-0.461-2.494-2.65-4.39-5.275-4.39h-8.553v-1.794
			h6.144c2.015,0,3.653-1.639,3.653-3.653c0-2.014-1.639-3.653-3.653-3.653H16.42c-1.676,0-3.091,1.135-3.52,2.676H7.24
			c-3.992,0-7.24,3.248-7.24,7.24s3.248,7.24,7.24,7.24h1.405v0.737c0,2.262,1.408,4.2,3.392,4.989L9.302,39.327
			c-0.188,0.704-0.091,1.44,0.275,2.073c0.366,0.635,0.955,1.087,1.659,1.275l3.704,0.992c0.23,0.062,0.467,0.094,0.705,0.094
			c1.237,0,2.324-0.834,2.644-2.027l1.098-4.096h6.938c2.325,0,4.217-1.892,4.217-4.217v-3.924h2.529
			c2.625,0,4.814-1.896,5.275-4.39h6.219c0.381,1.09,1.42,1.874,2.639,1.874c1.542,0,2.797-1.255,2.797-2.797v-3.533
			C50,19.11,48.745,17.855,47.203,17.855z M16.42,8.191h14.241c0.938,0,1.7,0.763,1.7,1.7s-0.763,1.7-1.7,1.7H16.42
			c-0.937,0-1.7-0.763-1.7-1.7S15.483,8.191,16.42,8.191z M8.645,20.706v0.737H7.24l0,0c-2.916,0-5.287-2.372-5.287-5.287
			c0-2.915,2.372-5.287,5.287-5.287h5.661c0.428,1.542,1.844,2.677,3.52,2.677h6.144v1.794h-8.553
			C11.053,15.339,8.645,17.747,8.645,20.706z M16.402,41.229c-0.092,0.341-0.403,0.579-0.758,0.579c-0.067,0-0.134-0.01-0.199-0.027
			l-3.704-0.992c-0.2-0.053-0.368-0.183-0.473-0.364c-0.105-0.183-0.133-0.393-0.08-0.593l2.769-10.334c0.018,0,0.036,0,0.054,0
			h5.533L16.402,41.229z M28.588,33.422c0,1.248-1.016,2.264-2.264,2.264h-6.415l0.251-0.938c1.538-0.026,2.651-0.174,3.472-0.911
			c0.852-0.767,1.15-1.909,1.692-3.985c0.03-0.115,0.061-0.232,0.092-0.354h3.171V33.422z M20.689,32.775l0.878-3.277h1.831
			c-0.41,1.569-0.668,2.523-1.072,2.887C22.056,32.627,21.522,32.733,20.689,32.775z M36.483,24.132
			c0,1.881-1.531,3.413-3.413,3.413H14.012c-0.055,0-0.109-0.001-0.164-0.004c-0.024-0.001-0.047-0.003-0.071-0.004
			c-0.029-0.003-0.059-0.005-0.088-0.008c-0.031-0.002-0.061-0.006-0.091-0.01c-0.021-0.002-0.043-0.006-0.064-0.008
			c-0.035-0.006-0.07-0.012-0.104-0.018c-1.605-0.277-2.831-1.679-2.831-3.362v-3.426c0-1.882,1.531-3.414,3.414-3.414H33.07
			c1.882,0,3.413,1.531,3.413,3.414V24.132z M44.406,23.156h-5.97v-1.473h5.97V23.156z M48.047,24.186
			c0,0.465-0.379,0.844-0.844,0.844s-0.844-0.378-0.844-0.844v-0.053v-3.426v-0.054c0-0.465,0.379-0.844,0.844-0.844
			s0.844,0.378,0.844,0.844V24.186z"/>
	</g>
</g>
<g>
	<g>
		<path fill="#FFFFFF" d="M22.468,19.577h-4.651c-0.539,0-0.977,0.438-0.977,0.977c0,0.54,0.438,0.977,0.977,0.977h4.651
			c0.54,0,0.977-0.437,0.977-0.977C23.444,20.014,23.007,19.577,22.468,19.577z"/>
	</g>
</g>
<g>
	<g>
		<path fill="#FFFFFF" d="M14.817,19.577h-0.025c-0.54,0-0.977,0.437-0.977,0.977s0.437,0.977,0.977,0.977h0.025
			c0.54,0,0.977-0.438,0.977-0.977C15.794,20.014,15.357,19.577,14.817,19.577z"/>
	</g>
</g>
<g>
	<g>
		<path fill="#FFFFFF" d="M22.468,23.308h-0.025c-0.539,0-0.977,0.437-0.977,0.977c0,0.539,0.438,0.977,0.977,0.977h0.025
			c0.54,0,0.977-0.438,0.977-0.977C23.444,23.745,23.007,23.308,22.468,23.308z"/>
	</g>
</g>
<g>
	<g>
		<path fill="#FFFFFF" d="M19.443,23.308h-4.651c-0.54,0-0.977,0.438-0.977,0.977s0.437,0.977,0.977,0.977h4.651
			c0.539,0,0.977-0.438,0.977-0.977S19.982,23.308,19.443,23.308z"/>
	</g>
</g>
</svg>
