<?xml version="1.0" encoding="utf-8"?>
<!-- Generator: Adobe Illustrator 16.0.0, SVG Export Plug-In . SVG Version: 6.00 Build 0)  -->
<!DOCTYPE svg PUBLIC "-//W3C//DTD SVG 1.1//EN" "http://www.w3.org/Graphics/SVG/1.1/DTD/svg11.dtd">
<svg version="1.1" id="Layer_1" xmlns="http://www.w3.org/2000/svg" xmlns:xlink="http://www.w3.org/1999/xlink" x="0px" y="0px"
	 width="50px" height="50px" viewBox="0 0 50 50" enable-background="new 0 0 50 50" xml:space="preserve">
<path fill="#FFFFFF" d="M37.5,33.6l6.654-6.1c1.412-1.294,0.965-3.473-0.67-4.173L37.5,20.762V11.25c0-0.69-0.56-1.25-1.25-1.25
	H32.5V6.875C32.5,5.839,31.66,5,30.625,5h-11.25C18.339,5,17.5,5.839,17.5,6.875V10h-3.75c-0.69,0-1.25,0.56-1.25,1.25v9.512
	l-5.942,2.546c-1.756,0.753-2.06,2.956-0.748,4.159L12.5,33.6c0,2.82-3.98,8.9-11.562,8.9C0.42,42.5,0,42.92,0,43.438v0.625
	C0,44.58,0.42,45,0.938,45c5.116,0,9.166-2.264,11.778-5.715C13.519,42.562,16.479,45,20,45h10c3.521,0,6.481-2.438,7.285-5.715
	C39.912,42.756,43.971,45,49.062,45C49.58,45,50,44.58,50,44.062v-0.625c0-0.518-0.42-0.938-0.938-0.938
	C41.748,42.5,37.5,36.657,37.5,33.6z M20,7.5h10V10H20V7.5z M15,12.5h20v7.191l-9.016-3.864c-0.628-0.27-1.34-0.27-1.969,0
	L15,19.691V12.5z M35,32.5v5c0,2.762-2.238,5-5,5H20c-2.761,0-5-2.238-5-5v-5l-7.5-6.875l17.5-7.5l17.5,7.5L35,32.5z"/>
</svg>
