<?xml version="1.0" encoding="utf-8"?>
<!-- Generator: Adobe Illustrator 16.0.0, SVG Export Plug-In . SVG Version: 6.00 Build 0)  -->
<!DOCTYPE svg PUBLIC "-//W3C//DTD SVG 1.1//EN" "http://www.w3.org/Graphics/SVG/1.1/DTD/svg11.dtd">
<svg version="1.1" id="Layer_1" xmlns="http://www.w3.org/2000/svg" xmlns:xlink="http://www.w3.org/1999/xlink" x="0px" y="0px"
	 width="50px" height="50px" viewBox="0 0 50 50" enable-background="new 0 0 50 50" xml:space="preserve">
<path fill="#FFFFFF" d="M43.484,8.862c-2.314-2.315-6.184-2.657-9.112,0.271C34.243,4.075,30.088,0,25,0
	c-5.088,0-9.243,4.075-9.372,9.133C12.69,6.195,8.82,6.557,6.515,8.862c-2.437,2.437-2.437,6.402,0,8.839l7.547,7.544v19.286
	c0,3.016,2.453,5.469,5.469,5.469h1.562c1.529,0,2.913-0.631,3.906-1.645C25.993,49.369,27.377,50,28.906,50h1.562
	c3.016,0,5.469-2.453,5.469-5.469V25.245l7.547-7.544C45.922,15.264,45.922,11.299,43.484,8.862z M25,3.125
	c3.451,0,6.25,2.798,6.25,6.25s-2.799,6.25-6.25,6.25c-3.452,0-6.25-2.798-6.25-6.25S21.548,3.125,25,3.125z M41.272,15.491
	l-8.46,8.459v20.581c0,1.295-1.049,2.344-2.344,2.344h-1.562c-1.295,0-2.344-1.049-2.344-2.344V33.594h-3.125v10.938
	c0,1.295-1.049,2.344-2.344,2.344h-1.562c-1.294,0-2.344-1.049-2.344-2.344V23.951l-8.46-8.459c-1.22-1.221-1.22-3.199,0-4.42
	c1.221-1.22,3.199-1.22,4.42,0l7.678,7.679h8.348l7.679-7.679c1.221-1.22,3.199-1.22,4.42,0
	C42.492,12.292,42.492,14.271,41.272,15.491z"/>
</svg>
