<?xml version="1.0" encoding="utf-8"?>
<!-- Generator: Adobe Illustrator 16.0.0, SVG Export Plug-In . SVG Version: 6.00 Build 0)  -->
<!DOCTYPE svg PUBLIC "-//W3C//DTD SVG 1.1//EN" "http://www.w3.org/Graphics/SVG/1.1/DTD/svg11.dtd">
<svg version="1.1" xmlns="http://www.w3.org/2000/svg" xmlns:xlink="http://www.w3.org/1999/xlink" x="0px" y="0px" width="50px"
	 height="50px" viewBox="0 0 50 50" enable-background="new 0 0 50 50" xml:space="preserve">
<g id="Capa_1">
	<g>
		<g>
			<path fill="#FFFFFF" d="M11.737,12.918c-0.152-0.372-0.558-0.543-0.911-0.384L1.67,16.689c-0.689,0.313-0.477,1.406,0.273,1.406
				c0.27,0-0.212,0.137,9.43-4.214C11.725,13.72,11.889,13.29,11.737,12.918z"/>
		</g>
	</g>
	<g>
		<g>
			<path fill="#FFFFFF" d="M11.373,36.16l-9.156-4.154c-0.353-0.158-0.76,0.014-0.911,0.385c-0.151,0.371,0.011,0.803,0.363,0.963
				c9.643,4.352,9.161,4.213,9.43,4.213s0.524-0.166,0.637-0.441C11.889,36.751,11.725,36.32,11.373,36.16z"/>
		</g>
	</g>
	<g>
		<g>
			<path fill="#FFFFFF" d="M18.104,22.202c-0.038-0.403-0.377-0.697-0.758-0.658l-12.247,1.27c-0.38,0.04-0.66,0.398-0.622,0.801
				c0.037,0.4,0.374,0.697,0.757,0.657l12.247-1.27C17.862,22.962,18.14,22.604,18.104,22.202z"/>
		</g>
	</g>
	<g>
		<g>
			<path fill="#FFFFFF" d="M17.48,27.367l-12.247-1.27c-0.38-0.039-0.721,0.254-0.757,0.655c-0.037,0.401,0.241,0.763,0.622,0.802
				l12.247,1.271c0.384,0.04,0.72-0.257,0.757-0.657C18.14,27.766,17.862,27.406,17.48,27.367z"/>
		</g>
	</g>
	<g>
		<g>
			<path fill="#FFFFFF" d="M33.32,4.704C26.645-0.35,17.503,6.467,19.568,15.032c-2.209,1.643-4.884,2.728-7.73,3.137L3.917,19.31
				c-0.379,0.055-0.646,0.424-0.593,0.825c0.052,0.402,0.403,0.681,0.781,0.626l7.92-1.14c2.926-0.421,5.685-1.509,8.008-3.151
				c0.704,1.721,1.879,3.211,3.423,4.269c0.116,0.08,0.247,0.118,0.376,0.118c0.686,0,0.957-0.95,0.377-1.347
				c-2.215-1.518-3.539-4.087-3.539-6.873c0-6.414,6.855-10.515,11.842-6.74c0.312,0.235,0.743,0.16,0.967-0.169
				C33.703,5.397,33.633,4.94,33.32,4.704z"/>
		</g>
	</g>
	<g>
		<g>
			<path fill="#FFFFFF" d="M41.949,35.359c-0.156-0.369-0.566-0.536-0.915-0.373c-1.319,0.617-2.726,0.931-4.179,0.931
				c-0.383,0-0.692,0.328-0.692,0.731c0,2.213-0.836,4.465-2.294,6.178c-4.921,5.781-13.196,1.623-13.196-5.455
				c0-2.723,1.277-5.26,3.415-6.786c0.316-0.228,0.4-0.683,0.186-1.017c-0.214-0.336-0.646-0.424-0.962-0.197
				c-1.47,1.049-2.594,2.503-3.275,4.169c-2.325-1.644-5.084-2.731-8.012-3.153l-7.92-1.141c-0.378-0.055-0.729,0.227-0.781,0.627
				c-0.051,0.4,0.214,0.77,0.593,0.824l7.921,1.141c2.849,0.41,5.522,1.496,7.733,3.139c-2.298,9.49,8.898,16.383,15.33,8.828
				c1.527-1.795,2.465-4.109,2.625-6.443c1.41-0.082,2.776-0.43,4.07-1.033C41.945,36.162,42.104,35.73,41.949,35.359z"/>
		</g>
	</g>
	<g>
		<g>
			<path fill="#FFFFFF" d="M37.523,12.646c-0.129-1.85-0.744-3.706-1.77-5.294c-0.216-0.334-0.646-0.42-0.963-0.192
				s-0.396,0.684-0.184,1.018c1.682,2.605,1.537,5.068,1.561,5.268c-0.066,1.081-0.311,2.138-0.71,3.089
				c-0.483-0.324-1.021-0.559-1.597-0.691c-0.375-0.085-0.743,0.165-0.824,0.561c-0.082,0.395,0.156,0.785,0.531,0.871
				c1.904,0.437,3.111,2.419,2.697,4.432c-0.412,2.008-2.295,3.286-4.195,2.85c-0.375-0.085-0.742,0.165-0.823,0.56
				c-0.081,0.396,0.153,0.784,0.53,0.871c4.586,1.054,7.836-4.685,4.762-8.464c0.197-0.294,0.775-1.767,0.963-3.412
				c5.395,0.354,9.684,5.103,9.684,10.892c0,3.179-1.31,6.19-3.588,8.269c-0.291,0.266-0.322,0.729-0.072,1.033
				c0.252,0.309,0.688,0.34,0.979,0.076c2.586-2.357,4.068-5.775,4.068-9.379C48.572,18.415,43.674,13.013,37.523,12.646z"/>
		</g>
	</g>
</g>
<g id="Capa_1_copy">
	<g>
		<g>
			<path fill="#FFFFFF" d="M11.737,12.918c-0.152-0.372-0.558-0.543-0.911-0.384L1.67,16.689c-0.689,0.313-0.477,1.406,0.273,1.406
				c0.27,0-0.212,0.137,9.43-4.214C11.725,13.72,11.889,13.29,11.737,12.918z"/>
		</g>
	</g>
	<g>
		<g>
			<path fill="#FFFFFF" d="M11.373,36.16l-9.156-4.154c-0.353-0.158-0.76,0.014-0.911,0.385c-0.151,0.371,0.011,0.803,0.363,0.963
				c9.643,4.352,9.161,4.213,9.43,4.213s0.524-0.166,0.637-0.441C11.889,36.751,11.725,36.32,11.373,36.16z"/>
		</g>
	</g>
	<g>
		<g>
			<path fill="#FFFFFF" d="M18.104,22.202c-0.038-0.403-0.377-0.697-0.758-0.658l-12.247,1.27c-0.38,0.04-0.66,0.398-0.622,0.801
				c0.037,0.4,0.374,0.697,0.757,0.657l12.247-1.27C17.862,22.962,18.14,22.604,18.104,22.202z"/>
		</g>
	</g>
	<g>
		<g>
			<path fill="#FFFFFF" d="M17.48,27.367l-12.247-1.27c-0.38-0.039-0.721,0.254-0.757,0.655c-0.037,0.401,0.241,0.763,0.622,0.802
				l12.247,1.271c0.384,0.04,0.72-0.257,0.757-0.657C18.14,27.766,17.862,27.406,17.48,27.367z"/>
		</g>
	</g>
	<g>
		<g>
			<path fill="#FFFFFF" d="M33.32,4.704C26.645-0.35,17.503,6.467,19.568,15.032c-2.209,1.643-4.884,2.728-7.73,3.137L3.917,19.31
				c-0.379,0.055-0.646,0.424-0.593,0.825c0.052,0.402,0.403,0.681,0.781,0.626l7.92-1.14c2.926-0.421,5.685-1.509,8.008-3.151
				c0.704,1.721,1.879,3.211,3.423,4.269c0.116,0.08,0.247,0.118,0.376,0.118c0.686,0,0.957-0.95,0.377-1.347
				c-2.215-1.518-3.539-4.087-3.539-6.873c0-6.414,6.855-10.515,11.842-6.74c0.312,0.235,0.743,0.16,0.967-0.169
				C33.703,5.397,33.633,4.94,33.32,4.704z"/>
		</g>
	</g>
	<g>
		<g>
			<path fill="#FFFFFF" d="M41.949,35.359c-0.156-0.369-0.566-0.536-0.915-0.373c-1.319,0.617-2.726,0.931-4.179,0.931
				c-0.383,0-0.692,0.328-0.692,0.731c0,2.213-0.836,4.465-2.294,6.178c-4.921,5.781-13.196,1.623-13.196-5.455
				c0-2.723,1.277-5.26,3.415-6.786c0.316-0.228,0.4-0.683,0.186-1.017c-0.214-0.336-0.646-0.424-0.962-0.197
				c-1.47,1.049-2.594,2.503-3.275,4.169c-2.325-1.644-5.084-2.731-8.012-3.153l-7.92-1.141c-0.378-0.055-0.729,0.227-0.781,0.627
				c-0.051,0.4,0.214,0.77,0.593,0.824l7.921,1.141c2.849,0.41,5.522,1.496,7.733,3.139c-2.298,9.49,8.898,16.383,15.33,8.828
				c1.527-1.795,2.465-4.109,2.625-6.443c1.41-0.082,2.776-0.43,4.07-1.033C41.945,36.162,42.104,35.73,41.949,35.359z"/>
		</g>
	</g>
	<g>
		<g>
			<path fill="#FFFFFF" d="M37.523,12.646c-0.129-1.85-0.744-3.706-1.77-5.294c-0.216-0.334-0.646-0.42-0.963-0.192
				s-0.396,0.684-0.184,1.018c1.682,2.605,1.537,5.068,1.561,5.268c-0.066,1.081-0.311,2.138-0.71,3.089
				c-0.483-0.324-1.021-0.559-1.597-0.691c-0.375-0.085-0.743,0.165-0.824,0.561c-0.082,0.395,0.156,0.785,0.531,0.871
				c1.904,0.437,3.111,2.419,2.697,4.432c-0.412,2.008-2.295,3.286-4.195,2.85c-0.375-0.085-0.742,0.165-0.823,0.56
				c-0.081,0.396,0.153,0.784,0.53,0.871c4.586,1.054,7.836-4.685,4.762-8.464c0.197-0.294,0.775-1.767,0.963-3.412
				c5.395,0.354,9.684,5.103,9.684,10.892c0,3.179-1.31,6.19-3.588,8.269c-0.291,0.266-0.322,0.729-0.072,1.033
				c0.252,0.309,0.688,0.34,0.979,0.076c2.586-2.357,4.068-5.775,4.068-9.379C48.572,18.415,43.674,13.013,37.523,12.646z"/>
		</g>
	</g>
</g>
</svg>
