<?xml version="1.0" encoding="utf-8"?>
<!-- Generator: Adobe Illustrator 16.0.0, SVG Export Plug-In . SVG Version: 6.00 Build 0)  -->
<!DOCTYPE svg PUBLIC "-//W3C//DTD SVG 1.1//EN" "http://www.w3.org/Graphics/SVG/1.1/DTD/svg11.dtd">
<svg version="1.1" id="Layer_1" xmlns="http://www.w3.org/2000/svg" xmlns:xlink="http://www.w3.org/1999/xlink" x="0px" y="0px"
	 width="50px" height="50px" viewBox="0 0 50 50" enable-background="new 0 0 50 50" xml:space="preserve">
<path fill="#FFFFFF" d="M40.625,9.375H37.5V7.812c0-2.589-2.099-4.688-4.688-4.688h-25c-2.589,0-4.688,2.099-4.688,4.688v34.375
	c0,2.589,2.099,4.688,4.688,4.688h25c2.589,0,4.688-2.099,4.688-4.688v-2.159l5.92-2.96c2.131-1.066,3.455-3.208,3.455-5.59V15.625
	C46.875,12.179,44.071,9.375,40.625,9.375z M34.375,42.188c0,0.861-0.701,1.562-1.562,1.562h-25c-0.861,0-1.562-0.701-1.562-1.562
	V7.812c0-0.861,0.701-1.562,1.562-1.562h25c0.861,0,1.562,0.701,1.562,1.562V42.188z M43.75,31.479c0,1.191-0.662,2.262-1.728,2.795
	L37.5,36.534V12.5h3.125c1.723,0,3.125,1.402,3.125,3.125V31.479z M21.875,14.062v21.875c0,0.863-0.7,1.562-1.562,1.562
	s-1.562-0.699-1.562-1.562V14.062c0-0.863,0.7-1.562,1.562-1.562S21.875,13.2,21.875,14.062z M15.625,14.062v21.875
	c0,0.863-0.7,1.562-1.562,1.562S12.5,36.801,12.5,35.938V14.062c0-0.863,0.7-1.562,1.562-1.562S15.625,13.2,15.625,14.062z
	 M28.125,14.062v21.875c0,0.863-0.699,1.562-1.562,1.562S25,36.801,25,35.938V14.062c0-0.863,0.699-1.562,1.562-1.562
	S28.125,13.2,28.125,14.062z"/>
</svg>
