<?xml version="1.0" encoding="utf-8"?>
<!-- Generator: Adobe Illustrator 16.0.0, SVG Export Plug-In . SVG Version: 6.00 Build 0)  -->
<!DOCTYPE svg PUBLIC "-//W3C//DTD SVG 1.1//EN" "http://www.w3.org/Graphics/SVG/1.1/DTD/svg11.dtd">
<svg version="1.1" id="Layer_1" xmlns="http://www.w3.org/2000/svg" xmlns:xlink="http://www.w3.org/1999/xlink" x="0px" y="0px"
	 width="50px" height="50px" viewBox="0 0 50 50" enable-background="new 0 0 50 50" xml:space="preserve">
<path fill="#FFFFFF" d="M43.044,35.525l-5.39-6.619c2.598-0.004,4.058-3.006,2.455-5.052l-5.227-6.674
	c2.582-0.174,3.848-3.247,2.131-5.188L27.341,1.054c-1.243-1.405-3.438-1.406-4.682,0l-9.673,10.938
	c-1.715,1.939-0.456,5.015,2.131,5.188l-5.227,6.674c-1.602,2.046-0.144,5.048,2.456,5.052l-5.39,6.619
	c-1.661,2.039-0.206,5.1,2.422,5.1h13.277c0,3.549-0.383,5.527-2.896,8.041C19.27,49.157,19.617,50,20.312,50h9.375
	c0.693,0,1.044-0.842,0.553-1.334c-2.515-2.514-2.896-4.494-2.896-8.041h13.277C43.25,40.625,44.704,37.563,43.044,35.525z
	 M27.344,37.5v-1.953c0-0.646-0.525-1.172-1.172-1.172h-2.344c-0.647,0-1.172,0.525-1.172,1.172V37.5H9.375l9.549-11.719h-6.573
	l9.177-11.719h-6.201L25,3.125l9.673,10.938h-6.2l9.176,11.719h-6.572L40.625,37.5H27.344z"/>
</svg>
