<?xml version="1.0" encoding="utf-8"?>
<!-- Generator: Adobe Illustrator 16.0.0, SVG Export Plug-In . SVG Version: 6.00 Build 0)  -->
<!DOCTYPE svg PUBLIC "-//W3C//DTD SVG 1.1//EN" "http://www.w3.org/Graphics/SVG/1.1/DTD/svg11.dtd">
<svg version="1.1" id="Layer_1" xmlns="http://www.w3.org/2000/svg" xmlns:xlink="http://www.w3.org/1999/xlink" x="0px" y="0px"
	 width="50px" height="50px" viewBox="0 0 50 50" enable-background="new 0 0 50 50" xml:space="preserve">
<path fill="#FFFFFF" d="M25,0.781C11.621,0.781,0.781,11.621,0.781,25S11.621,49.219,25,49.219S49.219,38.379,49.219,25
	S38.379,0.781,25,0.781z M46.094,25c0,11.592-9.385,21.094-21.094,21.094C13.408,46.094,3.906,36.709,3.906,25
	C3.906,13.408,13.291,3.906,25,3.906C36.592,3.906,46.094,13.291,46.094,25z M30.537,25.635c-1.27-0.996-2.881-1.641-4.443-2.266
	c-2.959-1.182-4.756-2.031-4.756-3.965c0-0.781,0.361-1.504,1.025-2.041c0.762-0.605,1.826-0.928,3.086-0.928
	c2.588,0,4.492,1.719,4.512,1.738c0.156,0.146,0.381,0.215,0.596,0.186s0.41-0.156,0.518-0.352l1.074-1.797
	c0.166-0.283,0.127-0.645-0.098-0.889c-0.078-0.088-1.904-1.943-5.225-2.354v-2.861c0-0.4-0.322-0.732-0.723-0.732h-1.816
	c-0.4,0-0.723,0.332-0.723,0.732v2.979c-1.641,0.312-3.057,1.016-4.121,2.051c-1.201,1.162-1.855,2.705-1.855,4.336
	c0,1.963,0.771,3.525,2.344,4.785c1.309,1.045,2.969,1.709,4.57,2.363c2.861,1.152,4.59,1.982,4.59,3.721
	c0,2.236-2.002,3.262-3.857,3.262c-3.174,0-5.43-2.266-5.459-2.305c-0.146-0.146-0.352-0.225-0.557-0.215s-0.4,0.107-0.537,0.273
	l-1.328,1.67c-0.225,0.273-0.215,0.674,0.02,0.947c0.098,0.107,2.246,2.51,6.191,3.057v2.881c0,0.4,0.322,0.732,0.723,0.732h1.816
	c0.4,0,0.723-0.332,0.723-0.732v-2.891c1.689-0.283,3.125-1.025,4.189-2.158c1.152-1.221,1.787-2.861,1.787-4.609
	C32.812,28.34,32.07,26.836,30.537,25.635z"/>
</svg>
