<?xml version="1.0" encoding="UTF-8"?>
<svg width="56px" height="55px" viewBox="0 0 56 55" version="1.1" xmlns="http://www.w3.org/2000/svg" xmlns:xlink="http://www.w3.org/1999/xlink">
    <!-- Generator: Sketch 49.1 (51147) - http://www.bohemiancoding.com/sketch -->
    <title>Party</title>
    <desc>Created with Sketch.</desc>
    <defs></defs>
    <g id="Page-1" stroke="none" stroke-width="1" fill="none" fill-rule="evenodd">
        <g id="Icons" transform="translate(-962.000000, -2759.000000)">
            <g id="Group" transform="translate(963.000000, 2760.000000)">
                <polygon id="Path" stroke="#231F20" stroke-width="2" stroke-linecap="round" stroke-linejoin="round" points="48.571 13.479 49.631 15.626 52 15.971 50.286 17.642 50.69 20.002 48.571 18.888 46.452 20.002 46.856 17.642 45.142 15.971 47.511 15.626"></polygon>
                <path d="M45.002,29.747 L45.002,29.747 C45.002,28.367 43.883,27.247 42.502,27.247 L34.002,27.247 L34.002,37.247 L54,37.247 L54,32.247 L47.502,32.247 C46.121,32.247 45.002,31.128 45.002,29.747 L45.002,29.747 Z" id="Stroke-411" stroke="#231F20" stroke-width="2" stroke-linecap="round" stroke-linejoin="round"></path>
                <path d="M34.002,34.247 L16.436,34.247 C7.89,34.247 1.521,29.803 0.211,22.924 C-0.376,19.84 0.272,16.711 2.038,14.115 C3.804,11.519 6.474,9.766 9.559,9.178 C12.13,8.688 14.74,9.229 16.906,10.701 C19.072,12.174 20.535,14.403 21.024,16.975 C21.436,19.137 20.981,21.331 19.743,23.152 C18.505,24.973 16.632,26.202 14.469,26.615 L13.721,22.685 C14.834,22.473 15.799,21.84 16.435,20.903 C17.073,19.965 17.306,18.836 17.094,17.723 C16.805,16.199 15.939,14.881 14.657,14.009 C13.376,13.137 11.83,12.817 10.307,13.108 C8.272,13.495 6.51,14.652 5.346,16.365 C4.18,18.077 3.753,20.141 4.14,22.176 C5.274,28.127 11.235,30.247 16.436,30.247 L34.002,30.247 L34.002,34.247 L34.002,34.247 Z M37.285,9.142 C37.285,10.523 36.166,11.642 34.785,11.642 C33.405,11.642 32.285,10.523 32.285,9.142 C32.285,7.761 33.405,6.642 34.785,6.642 C36.166,6.642 37.285,7.761 37.285,9.142 L37.285,9.142 Z M46.285,3.142 C46.285,4.523 45.166,5.642 43.785,5.642 C42.405,5.642 41.285,4.523 41.285,3.142 C41.285,1.761 42.405,0.642 43.785,0.642 C45.166,0.642 46.285,1.761 46.285,3.142 L46.285,3.142 Z" id="Stroke-412" stroke="#231F20" stroke-width="2" stroke-linecap="round"></path>
                <path d="M44.285,10.142 C44.285,10.97 43.614,11.642 42.785,11.642 C41.957,11.642 41.285,10.97 41.285,10.142 C41.285,9.314 41.957,8.642 42.785,8.642 C43.614,8.642 44.285,9.314 44.285,10.142" id="Fill-413" fill="#231F20" fill-rule="evenodd"></path>
                <path d="M39.285,15.142 C39.285,15.97 38.614,16.642 37.785,16.642 C36.957,16.642 36.285,15.97 36.285,15.142 C36.285,14.313 36.957,13.642 37.785,13.642 C38.614,13.642 39.285,14.313 39.285,15.142" id="Fill-414" fill="#231F20" fill-rule="evenodd"></path>
                <polygon id="Stroke-415" stroke="#231F20" stroke-width="2" stroke-linecap="round" stroke-linejoin="round" points="16.889 43.7 19.157 44.469 21.076 43.037 21.045 45.431 23 46.813 20.714 47.524 20.003 49.811 18.62 47.855 16.226 47.886 17.658 45.967"></polygon>
                <path d="M5.842,48.613 C6.819,49.589 6.819,51.172 5.842,52.148 C4.866,53.125 3.283,53.125 2.307,52.148 C1.331,51.172 1.331,49.589 2.307,48.613 C3.283,47.636 4.866,47.636 5.842,48.613 L5.842,48.613 Z" id="Stroke-416" stroke="#231F20" stroke-width="2" stroke-linecap="round"></path>
                <path d="M11.499,44.37 C12.085,44.956 12.085,45.906 11.499,46.491 C10.913,47.077 9.964,47.077 9.378,46.491 C8.792,45.906 8.792,44.956 9.378,44.37 C9.964,43.784 10.913,43.784 11.499,44.37" id="Fill-417" fill="#231F20" fill-rule="evenodd"></path>
                <path d="M11.499,51.441 C12.085,52.027 12.085,52.977 11.499,53.563 C10.913,54.148 9.964,54.148 9.378,53.563 C8.792,52.977 8.792,52.027 9.378,51.441 C9.964,50.855 10.913,50.855 11.499,51.441" id="Fill-418" fill="#231F20" fill-rule="evenodd"></path>
            </g>
        </g>
    </g>
</svg>