<?xml version="1.0" encoding="utf-8"?>
<!-- Generator: Adobe Illustrator 16.0.0, SVG Export Plug-In . SVG Version: 6.00 Build 0)  -->
<!DOCTYPE svg PUBLIC "-//W3C//DTD SVG 1.1//EN" "http://www.w3.org/Graphics/SVG/1.1/DTD/svg11.dtd">
<svg version="1.1" id="Layer_1" xmlns="http://www.w3.org/2000/svg" xmlns:xlink="http://www.w3.org/1999/xlink" x="0px" y="0px"
	 width="50px" height="50px" viewBox="0 0 50 50" enable-background="new 0 0 50 50" xml:space="preserve">
<path fill="#FFFFFF" d="M37.939,4.521C44.717,8.818,49.219,16.387,49.219,25c0,13.359-10.82,24.189-24.17,24.219
	c-13.33,0.029-24.248-10.84-24.268-24.18C0.771,16.406,5.273,8.818,12.061,4.521c0.566-0.361,1.318-0.176,1.65,0.41l0.381,0.684
	c0.303,0.547,0.127,1.23-0.4,1.562C7.803,10.938,3.906,17.539,3.906,25c0,11.709,9.502,21.094,21.094,21.094
	c11.709,0,21.094-9.502,21.094-21.094c0-7.52-3.916-14.082-9.795-17.812c-0.527-0.332-0.703-1.025-0.4-1.562l0.381-0.684
	C36.611,4.346,37.373,4.17,37.939,4.521z M26.562,26.953V1.172C26.562,0.527,26.035,0,25.391,0h-0.781
	c-0.645,0-1.172,0.527-1.172,1.172v25.781c0,0.645,0.527,1.172,1.172,1.172h0.781C26.035,28.125,26.562,27.598,26.562,26.953z"/>
</svg>
