<?xml version="1.0" encoding="utf-8"?>
<!-- Generator: Adobe Illustrator 16.0.0, SVG Export Plug-In . SVG Version: 6.00 Build 0)  -->
<!DOCTYPE svg PUBLIC "-//W3C//DTD SVG 1.1//EN" "http://www.w3.org/Graphics/SVG/1.1/DTD/svg11.dtd">
<svg version="1.1" id="Layer_1" xmlns="http://www.w3.org/2000/svg" xmlns:xlink="http://www.w3.org/1999/xlink" x="0px" y="0px"
	 width="50px" height="50px" viewBox="0 0 50 50" enable-background="new 0 0 50 50" xml:space="preserve">
<path fill="#FFFFFF" d="M27.773,35.234l0.703,1.396c0.195,0.391,0.039,0.859-0.352,1.045l-2.754,1.387l2.754,1.377
	c0.391,0.195,0.547,0.664,0.352,1.045l-0.703,1.396c-0.195,0.391-0.664,0.547-1.045,0.352l-4.854-2.422l-4.854,2.422
	c-0.391,0.195-0.859,0.039-1.045-0.352l-0.703-1.396c-0.195-0.391-0.039-0.859,0.352-1.045l2.754-1.377l-2.754-1.377
	c-0.391-0.195-0.547-0.664-0.352-1.045l0.703-1.396c0.195-0.391,0.664-0.547,1.045-0.352l4.854,2.422l4.854-2.422
	C27.109,34.697,27.578,34.854,27.773,35.234z M40.859,36.592L37.5,39.736v7.139c0,1.729-1.396,3.125-3.125,3.125h-25
	c-1.729,0-3.125-1.396-3.125-3.125V37.5l-1.67-9.424c-0.967-5.85-1.455-11.807-1.455-17.725C3.125,4.648,7.734,0,13.398,0h17.07
	c5.596,0,10.156,4.648,10.156,10.352v4.258c3.633,1.23,6.25,4.482,6.25,8.34C46.875,28.105,44.736,32.949,40.859,36.592z
	 M38.721,34.307c3.242-3.037,5.029-7.07,5.029-11.357c0-3.174-2.803-5.762-6.25-5.762h-3.047c-2.568,0-4.717,2.031-4.766,4.6
	c-0.049,2.402,1.719,4.404,4.014,4.727c0.391,0.059,0.674,0.4,0.674,0.791v1.562c0,0.459-0.4,0.83-0.859,0.781
	c-3.906-0.43-6.953-3.75-6.953-7.764c0-1.113,0.244-2.168,0.664-3.125h-8.74c-2.988,0-5.811-1.064-8.037-3.008
	c-0.342-0.303-0.361-0.82-0.039-1.143l1.104-1.104c0.293-0.293,0.752-0.303,1.064-0.039c1.65,1.406,3.721,2.178,5.908,2.178h11.201
	v0.039c1.309-0.986,2.92-1.602,4.688-1.602H37.5v-3.711c0-4.053-3.086-7.227-7.031-7.227h-17.07C9.453,3.125,6.25,6.367,6.25,10.352
	c0,14.609,3.096,24.658,3.105,27.148h2.363c0.43,0,0.781,0.352,0.781,0.781v1.562c0,0.43-0.352,0.781-0.781,0.781H9.355l0.02,6.25
	h25v-6.25h-2.344c-0.43,0-0.781-0.352-0.781-0.781v-1.562c0-0.43,0.352-0.781,0.781-0.781h3.291L38.721,34.307z"/>
</svg>
