<?xml version="1.0" encoding="utf-8"?>
<!-- Generator: Adobe Illustrator 16.0.0, SVG Export Plug-In . SVG Version: 6.00 Build 0)  -->
<!DOCTYPE svg PUBLIC "-//W3C//DTD SVG 1.1//EN" "http://www.w3.org/Graphics/SVG/1.1/DTD/svg11.dtd">
<svg version="1.1" id="Layer_1" xmlns="http://www.w3.org/2000/svg" xmlns:xlink="http://www.w3.org/1999/xlink" x="0px" y="0px"
	 width="50px" height="50px" viewBox="0 0 50 50" enable-background="new 0 0 50 50" xml:space="preserve">
<path fill="#FFFFFF" d="M30.469,21.875c-0.77-0.001-1.528,0.188-2.207,0.551h0.001c1.066,0,1.931,0.864,1.931,1.93
	c0,1.066-0.864,1.931-1.931,1.931c-1.065,0-1.931-0.864-1.931-1.931v-0.001c-0.362,0.679-0.552,1.438-0.551,2.208
	c0,2.589,2.099,4.688,4.688,4.688s4.688-2.099,4.688-4.688S33.058,21.875,30.469,21.875z M19.531,21.875
	c-0.77-0.001-1.528,0.188-2.208,0.551h0.001c1.066,0,1.93,0.864,1.93,1.93c0,1.066-0.864,1.931-1.93,1.931
	c-1.066,0-1.93-0.864-1.93-1.931v-0.001c-0.363,0.679-0.552,1.438-0.551,2.208c0,2.589,2.099,4.688,4.688,4.688
	s4.688-2.099,4.688-4.688S22.12,21.875,19.531,21.875z M25,3.125c2.711,0,6.734,3.132,6.734,6.152c0,2.369-0.582,3.418-1.504,4.785
	c1.301,0,8.441-0.867,8.441,5.469c0,1.958-0.82,3.79-2.439,5.446L36.21,25c4.527,0,6.563,2.496,6.563,5.469
	c0,1.422-0.431,3.461-2.354,5.469c4.382,0,6.455,2.495,6.455,5.469c0,3.021-2.448,5.469-5.469,5.469H8.594
	c-2.824,0-5.469-2.557-5.469-5.469c0-5.174,4.652-5.39,7.317-5.954c-1.623-0.735-3.13-3.136-3.13-4.983
	c0-4.537,2.95-4.891,6.639-6.255c-1.287-0.77-2.623-2.348-2.623-3.999c0-2.602,0.885-4.692,3.283-5.697
	C14.782,14.439,25,12.594,25,3.125 M21.875,0v3.125c0,6.816-7.124,7.934-8.49,8.519c-5.171,2.18-5.931,8.101-4.64,11.169
	c-4.409,2.115-5.45,7.092-3.867,10.808C1.856,34.975,0,37.848,0,41.406C0,46.051,4.056,50,8.594,50h32.812
	C46.145,50,50,46.145,50,41.406c0-3.316-1.889-6.199-4.646-7.632c1.546-4.591-0.327-8.987-4.118-10.946
	c1.946-5.567-1.404-10.823-6.486-11.751C35.156,6.25,31.76,0,21.875,0z M34.375,34.375h-18.75c-0.644,0-1.013,0.735-0.626,1.25
	c2.28,3.036,5.911,5,10,5c4.09,0,7.721-1.964,10-5C35.387,35.11,35.018,34.375,34.375,34.375z"/>
</svg>
