<?xml version="1.0" encoding="utf-8"?>
<!-- Generator: Adobe Illustrator 16.0.0, SVG Export Plug-In . SVG Version: 6.00 Build 0)  -->
<!DOCTYPE svg PUBLIC "-//W3C//DTD SVG 1.1//EN" "http://www.w3.org/Graphics/SVG/1.1/DTD/svg11.dtd">
<svg version="1.1" id="Layer_1" xmlns="http://www.w3.org/2000/svg" xmlns:xlink="http://www.w3.org/1999/xlink" x="0px" y="0px"
	 width="50px" height="50px" viewBox="0 0 50 50" enable-background="new 0 0 50 50" xml:space="preserve">
<path fill="#FFFFFF" d="M45.496,35.748c-2.172-2.173-4.871-4.877-4.871-15.436c0-7.753-5.647-14.187-13.053-15.413
	c0.361-0.521,0.554-1.141,0.553-1.774C28.125,1.399,26.727,0,25,0c-1.726,0-3.125,1.399-3.125,3.125
	c0,0.659,0.205,1.271,0.553,1.774c-7.406,1.227-13.053,7.66-13.053,15.413c0,10.559-2.7,13.263-4.873,15.436
	c-2.944,2.944-0.857,8.002,3.315,8.002H18.75c0,3.446,2.804,6.25,6.25,6.25s6.25-2.804,6.25-6.25h10.932
	C46.346,43.75,48.447,38.698,45.496,35.748z M25,46.875c-1.723,0-3.125-1.402-3.125-3.125h6.25
	C28.125,45.473,26.723,46.875,25,46.875z M42.182,40.625H7.817c-1.389,0-2.083-1.689-1.105-2.668
	c3.403-3.402,5.788-7.213,5.788-17.645c0-6.908,5.591-12.5,12.5-12.5c6.908,0,12.5,5.591,12.5,12.5
	c0,10.393,2.363,14.223,5.787,17.645C44.27,38.939,43.565,40.625,42.182,40.625z"/>
</svg>
