<?xml version="1.0" encoding="utf-8"?>
<!-- Generator: Adobe Illustrator 16.0.0, SVG Export Plug-In . SVG Version: 6.00 Build 0)  -->
<!DOCTYPE svg PUBLIC "-//W3C//DTD SVG 1.1//EN" "http://www.w3.org/Graphics/SVG/1.1/DTD/svg11.dtd">
<svg version="1.1" id="Capa_1" xmlns="http://www.w3.org/2000/svg" xmlns:xlink="http://www.w3.org/1999/xlink" x="0px" y="0px"
	 width="50px" height="50px" viewBox="0 0 50 50" enable-background="new 0 0 50 50" xml:space="preserve">
<g>
	<path fill="#FFFFFF" d="M25,0C11.215,0,0,11.215,0,25s11.215,25,25,25s25-11.215,25-25S38.785,0,25,0z M25,47.297
		c-6.125,0-11.68-2.482-15.713-6.493c-1.611-1.602-2.978-3.447-4.043-5.476C3.622,32.238,2.703,28.725,2.703,25
		C2.703,12.705,12.705,2.703,25,2.703c5.832,0,11.146,2.251,15.124,5.93c2.062,1.907,3.765,4.197,4.993,6.756
		c1.396,2.912,2.18,6.172,2.18,9.612C47.297,37.295,37.295,47.297,25,47.297z"/>
	<polygon fill="#FFFFFF" points="13.5,24.992 16.552,21.939 19.605,24.992 21.516,23.081 18.485,20.051 21.516,17.021 
		19.605,15.109 16.552,18.162 13.5,15.109 11.589,17.021 14.619,20.051 11.588,23.081 	"/>
	<polygon fill="#FFFFFF" points="30.392,24.992 33.444,21.939 36.497,24.992 38.408,23.081 35.377,20.051 38.408,17.021 
		36.497,15.109 33.444,18.162 30.392,15.109 28.48,17.021 31.512,20.051 28.48,23.081 	"/>
	<path fill="#FFFFFF" d="M38.457,32.095H11.43v2.702h15.879v2.027c0,2.822,2.137,5.16,4.861,5.523
		c0.242,0.033,0.504,0.051,0.756,0.051c2.616,0,4.796-1.812,5.393-4.249c0.104-0.425,0.139-0.868,0.139-1.325V32.095z
		 M30.012,34.797h5.742v2.027c0,1.584-1.287,2.871-2.871,2.871s-2.871-1.287-2.871-2.871V34.797z"/>
</g>
</svg>
