<?xml version="1.0" encoding="utf-8"?>
<!-- Generator: Adobe Illustrator 16.0.0, SVG Export Plug-In . SVG Version: 6.00 Build 0)  -->
<!DOCTYPE svg PUBLIC "-//W3C//DTD SVG 1.1//EN" "http://www.w3.org/Graphics/SVG/1.1/DTD/svg11.dtd">
<svg version="1.1" id="Capa_1" xmlns="http://www.w3.org/2000/svg" xmlns:xlink="http://www.w3.org/1999/xlink" x="0px" y="0px"
	 width="50px" height="50px" viewBox="0 0 50 50" enable-background="new 0 0 50 50" xml:space="preserve">
<g>
	<g>
		<path fill="#FFFFFF" d="M49.675,11.776c-0.553-0.857-1.579-1.034-2.666-1.22c-1.733-0.297-3.89-0.667-5.454-3.619
			c-0.006-0.012-0.013-0.023-0.02-0.036c0,0,0,0,0-0.001c-1.814-3.413-5.273-5.532-9.036-5.532c-5.682,0-10.304,4.781-10.304,10.658
			c0,2.669,0.937,5.178,2.653,7.139c-0.869,1.396-3.513,2.186-7.411,2.186c0,0-0.001,0-0.002,0c-5.572,0-11.708-1.627-13.472-3.083
			c-0.392-0.323-0.965-0.292-1.32,0.071c-2.014,2.062-2.965,5.771-2.545,9.921c0.402,3.971,1.974,7.686,4.346,10.324
			c-0.511,0.957-0.802,2.049-0.802,3.209c0,3.77,3.067,6.836,6.836,6.836c3.41,0,6.244-2.509,6.754-5.777h13.513
			c0.51,3.269,3.344,5.777,6.754,5.777c3.77,0,6.836-3.066,6.836-6.836c0-0.883-0.17-1.726-0.477-2.5
			c2.701-2.904,4.07-7.244,3.593-11.506c-0.394-3.506-1.989-6.583-4.469-8.712c0.581-0.19,1.243-0.43,1.92-0.718
			c2.846-1.212,4.511-2.675,4.95-4.349C50.097,13.072,50.039,12.341,49.675,11.776z M10.477,46.678c-2.692,0-4.883-2.19-4.883-4.883
			c0-1.086,0.357-2.09,0.958-2.902c0.007-0.01,0.015-0.02,0.022-0.029c0.043-0.057,0.086-0.113,0.132-0.168
			c0.004-0.005,0.008-0.01,0.013-0.016c0.144-0.173,0.299-0.336,0.466-0.488c0.004-0.004,0.009-0.008,0.013-0.012
			c0.048-0.044,0.097-0.086,0.146-0.127c0.019-0.016,0.037-0.031,0.056-0.047c0.045-0.035,0.09-0.071,0.136-0.106
			c0.027-0.021,0.055-0.04,0.082-0.06c0.041-0.029,0.082-0.06,0.123-0.088c0.069-0.047,0.138-0.092,0.209-0.135
			c0.019-0.012,0.039-0.021,0.059-0.033c0.061-0.035,0.121-0.07,0.183-0.103c0.021-0.011,0.043-0.022,0.064-0.033
			c0.063-0.032,0.127-0.063,0.192-0.093c0.018-0.009,0.035-0.017,0.053-0.024c0.077-0.034,0.154-0.066,0.232-0.097
			c0.006-0.002,0.012-0.004,0.019-0.007c0.18-0.067,0.364-0.126,0.551-0.172c0.003-0.001,0.006-0.001,0.008-0.002
			c0.085-0.021,0.172-0.04,0.259-0.056c0.018-0.004,0.036-0.007,0.055-0.01c0.072-0.014,0.145-0.024,0.217-0.033
			c0.024-0.004,0.048-0.007,0.073-0.01c0.07-0.008,0.14-0.014,0.21-0.02c0.024-0.002,0.049-0.004,0.073-0.006
			c0.093-0.005,0.186-0.008,0.28-0.008c2.355,0,4.327,1.677,4.783,3.9c0.065,0.316,0.1,0.646,0.1,0.982
			C15.36,44.487,13.169,46.678,10.477,46.678z M37.497,46.678c-2.692,0-4.883-2.19-4.883-4.883c0-2.693,2.19-4.883,4.883-4.883
			c0.075,0,0.149,0.002,0.224,0.006c0.02,0,0.037,0.002,0.057,0.002c0.07,0.004,0.14,0.01,0.209,0.017
			c0.004,0,0.008,0.001,0.012,0.001c0.075,0.008,0.15,0.018,0.225,0.028c0.013,0.002,0.025,0.005,0.039,0.007
			c2.33,0.367,4.119,2.39,4.119,4.822C42.381,44.487,40.189,46.678,37.497,46.678z M45.509,28.006
			c0.392,3.49-0.626,7.023-2.683,9.506c-1.064-1.328-2.586-2.21-4.273-2.472c-0.01-0.001-0.019-0.003-0.027-0.004
			c-0.104-0.016-0.206-0.028-0.31-0.04c-0.015-0.001-0.03-0.002-0.046-0.004c-0.102-0.01-0.205-0.019-0.309-0.023
			c-0.013-0.001-0.025-0.002-0.039-0.002c-0.107-0.006-0.217-0.008-0.325-0.008c-0.113,0-0.226,0.002-0.338,0.008
			c-0.037,0.002-0.073,0.006-0.11,0.008c-0.074,0.005-0.149,0.01-0.223,0.018c-0.045,0.004-0.088,0.01-0.131,0.016
			c-0.066,0.008-0.133,0.016-0.199,0.025c-0.046,0.006-0.092,0.014-0.137,0.021c-0.062,0.011-0.125,0.021-0.188,0.033
			c-0.047,0.01-0.093,0.02-0.139,0.03c-0.061,0.013-0.121,0.026-0.182,0.042c-0.045,0.012-0.092,0.023-0.137,0.035
			c-0.06,0.017-0.119,0.033-0.178,0.051c-0.045,0.014-0.09,0.027-0.135,0.042c-0.059,0.019-0.115,0.038-0.174,0.06
			c-0.043,0.016-0.088,0.03-0.131,0.047c-0.059,0.021-0.115,0.045-0.172,0.068c-0.043,0.017-0.084,0.033-0.126,0.051
			c-0.059,0.025-0.116,0.053-0.174,0.08c-0.039,0.018-0.078,0.035-0.116,0.055c-0.062,0.029-0.122,0.061-0.182,0.092
			c-0.034,0.019-0.068,0.035-0.102,0.054c-0.073,0.04-0.145,0.081-0.216,0.124c-0.02,0.012-0.04,0.022-0.06,0.035
			c-0.091,0.055-0.18,0.111-0.268,0.171c-0.021,0.015-0.042,0.03-0.063,0.045c-0.065,0.046-0.131,0.091-0.194,0.138
			c-0.031,0.023-0.061,0.048-0.092,0.071c-0.053,0.041-0.105,0.082-0.158,0.124c-0.032,0.027-0.064,0.055-0.097,0.082
			c-0.048,0.041-0.096,0.082-0.143,0.124c-0.033,0.03-0.065,0.06-0.099,0.091c-0.044,0.041-0.088,0.084-0.132,0.127
			c-0.032,0.031-0.063,0.063-0.096,0.096c-0.042,0.043-0.084,0.087-0.125,0.131c-0.03,0.033-0.062,0.067-0.092,0.102
			c-0.04,0.045-0.079,0.09-0.118,0.137c-0.029,0.034-0.059,0.069-0.088,0.104c-0.037,0.048-0.075,0.095-0.112,0.144
			c-0.027,0.035-0.055,0.07-0.081,0.107c-0.037,0.05-0.072,0.101-0.109,0.152c-0.023,0.035-0.049,0.07-0.073,0.106
			c-0.036,0.055-0.071,0.11-0.106,0.165c-0.021,0.035-0.043,0.068-0.064,0.103c-0.037,0.063-0.074,0.128-0.11,0.192
			c-0.016,0.028-0.032,0.056-0.048,0.084c-0.051,0.093-0.099,0.188-0.145,0.283c-0.004,0.008-0.007,0.014-0.01,0.021
			c-0.043,0.089-0.084,0.179-0.123,0.27c-0.014,0.033-0.026,0.067-0.04,0.101c-0.026,0.065-0.054,0.132-0.078,0.198
			c-0.015,0.039-0.028,0.08-0.042,0.12c-0.021,0.062-0.043,0.122-0.062,0.185c-0.014,0.043-0.027,0.087-0.039,0.131
			c-0.018,0.06-0.035,0.119-0.052,0.18c-0.013,0.046-0.023,0.092-0.034,0.139c-0.016,0.059-0.029,0.119-0.042,0.179
			c-0.011,0.048-0.02,0.095-0.028,0.143c-0.012,0.06-0.023,0.12-0.033,0.181c-0.008,0.049-0.016,0.097-0.021,0.146
			c-0.004,0.026-0.01,0.052-0.013,0.077H17.255c-0.003-0.026-0.008-0.053-0.012-0.078c-0.007-0.049-0.015-0.096-0.022-0.143
			c-0.01-0.062-0.021-0.123-0.033-0.185c-0.009-0.046-0.018-0.093-0.028-0.14c-0.013-0.061-0.027-0.121-0.042-0.182
			c-0.011-0.046-0.022-0.091-0.034-0.136c-0.016-0.062-0.034-0.122-0.052-0.183c-0.013-0.043-0.025-0.086-0.039-0.129
			c-0.02-0.062-0.042-0.125-0.063-0.187c-0.014-0.039-0.027-0.079-0.042-0.118c-0.025-0.068-0.052-0.135-0.08-0.201
			c-0.013-0.032-0.025-0.064-0.039-0.098c-0.04-0.092-0.081-0.184-0.125-0.274c-0.003-0.005-0.005-0.011-0.007-0.017
			c-0.047-0.096-0.096-0.19-0.146-0.284c-0.015-0.027-0.03-0.054-0.045-0.081c-0.037-0.064-0.074-0.131-0.112-0.195
			c-0.021-0.033-0.042-0.066-0.063-0.1c-0.035-0.057-0.07-0.112-0.107-0.168c-0.023-0.035-0.048-0.07-0.073-0.105
			c-0.036-0.051-0.072-0.103-0.109-0.153c-0.026-0.036-0.053-0.071-0.081-0.105c-0.037-0.049-0.075-0.097-0.114-0.146
			c-0.028-0.034-0.057-0.068-0.086-0.104c-0.04-0.047-0.079-0.092-0.12-0.138c-0.03-0.034-0.061-0.067-0.091-0.101
			c-0.041-0.044-0.083-0.088-0.125-0.131c-0.031-0.033-0.063-0.064-0.095-0.096c-0.044-0.043-0.089-0.086-0.134-0.129
			c-0.032-0.029-0.063-0.059-0.096-0.088c-0.047-0.043-0.096-0.084-0.144-0.125c-0.032-0.027-0.063-0.055-0.096-0.082
			c-0.052-0.043-0.106-0.084-0.16-0.125c-0.03-0.023-0.059-0.047-0.089-0.069c-0.065-0.048-0.131-0.095-0.198-0.141
			c-0.02-0.015-0.04-0.028-0.061-0.042c-0.088-0.061-0.177-0.117-0.268-0.173c-0.018-0.011-0.037-0.021-0.055-0.032
			c-0.072-0.043-0.146-0.086-0.22-0.126c-0.033-0.019-0.066-0.034-0.1-0.052c-0.061-0.032-0.122-0.064-0.184-0.095
			c-0.038-0.019-0.077-0.036-0.116-0.054c-0.058-0.027-0.116-0.055-0.175-0.08c-0.042-0.018-0.083-0.033-0.125-0.051
			c-0.058-0.023-0.115-0.047-0.173-0.068c-0.043-0.016-0.087-0.031-0.131-0.047c-0.058-0.021-0.116-0.041-0.174-0.06
			c-0.044-0.015-0.089-0.028-0.134-0.042c-0.059-0.018-0.118-0.034-0.177-0.051c-0.046-0.012-0.091-0.023-0.137-0.035
			c-0.06-0.016-0.121-0.029-0.182-0.042c-0.046-0.011-0.092-0.021-0.138-0.029c-0.062-0.013-0.125-0.023-0.188-0.034
			c-0.045-0.008-0.091-0.016-0.137-0.021c-0.066-0.01-0.132-0.018-0.199-0.025c-0.043-0.006-0.087-0.012-0.13-0.016
			c-0.074-0.008-0.148-0.012-0.223-0.018c-0.037-0.002-0.074-0.006-0.111-0.008c-0.112-0.006-0.225-0.008-0.338-0.008
			c-0.115,0-0.23,0.002-0.345,0.008c-0.919,0.047-1.792,0.275-2.582,0.651c-0.005,0.002-0.01,0.005-0.015,0.007
			c-0.07,0.033-0.138,0.068-0.207,0.104c-0.033,0.018-0.067,0.034-0.1,0.052c-0.032,0.018-0.063,0.036-0.096,0.055
			c-0.548,0.308-1.056,0.689-1.504,1.14c-1.952-2.311-3.244-5.496-3.589-8.909c-0.316-3.122,0.248-5.989,1.483-7.737
			c2.825,1.661,8.808,2.976,13.911,2.977c0,0,0.001,0,0.002,0c5.395,0,8.68-1.398,9.498-4.043c0.106-0.345,0.014-0.72-0.24-0.977
			c-1.643-1.655-2.547-3.878-2.547-6.258c0-4.8,3.746-8.705,8.352-8.705c3.045,0,5.851,1.73,7.321,4.515
			c0.004,0.007,0.008,0.014,0.012,0.021c0.001,0,0.001,0.001,0.001,0.002c1.621,2.879-0.055,5.034-2.24,7.355
			c-1.102,1.171-1.973,2.097-1.516,3.156c0.406,0.937,1.533,1.272,4.422,1.292C43.33,21.453,45.105,24.405,45.509,28.006z
			 M47.961,13.515c-0.51,1.95-4.699,3.593-7.293,4.196c-1.41-0.004-2.154-0.09-2.54-0.168c0.232-0.292,0.597-0.678,0.888-0.988
			c0.95-1.009,2.133-2.265,2.833-3.836c0.271-0.605,0.446-1.21,0.528-1.816c1.512,1.101,3.099,1.373,4.303,1.58
			c0.488,0.083,1.228,0.21,1.352,0.35C48.032,12.833,48.098,12.993,47.961,13.515z"/>
	</g>
</g>
<g>
	<g>
		<path fill="#FFFFFF" d="M35.318,9.427c-0.691,0-1.257,0.579-1.257,1.289s0.565,1.289,1.257,1.289c0.693,0,1.258-0.579,1.258-1.289
			S36.012,9.427,35.318,9.427z"/>
	</g>
</g>
<g>
	<g>
		<path fill="#FFFFFF" d="M10.798,40.818c-0.526,0-0.955,0.438-0.955,0.977c0,0.537,0.429,0.977,0.955,0.977
			c0.526,0,0.955-0.439,0.955-0.977C11.753,41.257,11.324,40.818,10.798,40.818z"/>
	</g>
</g>
<g>
	<g>
		<path fill="#FFFFFF" d="M37.221,40.818c-0.525,0-0.955,0.438-0.955,0.977c0,0.537,0.43,0.977,0.955,0.977
			c0.526,0,0.955-0.439,0.955-0.977C38.176,41.257,37.747,40.818,37.221,40.818z"/>
	</g>
</g>
<g>
	<g>
		<path fill="#FFFFFF" d="M41.751,24.222c-0.539,0-0.977,0.437-0.977,0.977v0.023c0,0.539,0.438,0.976,0.977,0.976
			c0.54,0,0.977-0.438,0.977-0.976v-0.023C42.728,24.659,42.291,24.222,41.751,24.222z"/>
	</g>
</g>
<g>
	<g>
		<path fill="#FFFFFF" d="M43.395,27.504c-0.193-0.502-0.759-0.753-1.262-0.559c-0.504,0.193-0.754,0.76-0.561,1.262
			c0.236,0.611,0.277,2.134-0.037,3.426c-0.127,0.523,0.193,1.052,0.718,1.18c0.077,0.019,0.155,0.027,0.231,0.027
			c0.44,0,0.84-0.299,0.949-0.745C43.766,30.727,43.86,28.71,43.395,27.504z"/>
	</g>
</g>
</svg>
