<?xml version="1.0" encoding="utf-8"?>
<!-- Generator: Adobe Illustrator 16.0.0, SVG Export Plug-In . SVG Version: 6.00 Build 0)  -->
<!DOCTYPE svg PUBLIC "-//W3C//DTD SVG 1.1//EN" "http://www.w3.org/Graphics/SVG/1.1/DTD/svg11.dtd">
<svg version="1.1" id="Layer_1" xmlns="http://www.w3.org/2000/svg" xmlns:xlink="http://www.w3.org/1999/xlink" x="0px" y="0px"
	 width="50px" height="50px" viewBox="0 0 50 50" enable-background="new 0 0 50 50" xml:space="preserve">
<path fill="#FFFFFF" d="M48.502,27.898C49.471,26.642,50,25,50,22.995c0-3.679-3.133-7.087-7.102-7.087h-6.852
	c0.852-1.696,2.021-3.8,2.021-6.818c0-5.704-2.275-9.09-8.097-9.09c-2.929,0-4.017,3.703-4.573,6.565
	c-0.333,1.71-0.647,3.325-1.614,4.292c-2.302,2.302-5.816,7.893-7.927,9.028c-0.213,0.09-0.487,0.161-0.784,0.217
	c-0.564-0.817-1.506-1.353-2.573-1.353H3.125C1.399,18.75,0,20.149,0,21.875v25C0,48.602,1.399,50,3.125,50H12.5
	c1.726,0,3.125-1.398,3.125-3.125v-0.854c3.173,0,9.833,3.979,17.33,3.977c0.537,0.001,3.676,0.004,4.005,0
	c5.789,0.002,9.009-3.504,8.821-8.768c1.478-1.732,2.201-4.232,1.78-6.554C48.777,32.77,49.039,30.08,48.502,27.898z M3.125,46.875
	v-25H12.5v25H3.125z M44.533,26.987c1.561,1.138,1.561,5.825-0.548,6.901c1.32,2.223,0.132,5.197-1.466,6.055
	c0.81,5.131-1.852,6.895-5.588,6.93c-0.323,0.004-3.637,0-3.977,0c-7.123,0-13.159-3.977-17.33-3.977V23.01
	c3.683,0,7.061-6.635,10.369-9.943c2.983-2.983,1.988-7.954,3.978-9.943c4.972,0,4.972,3.468,4.972,5.966
	c0,4.12-2.982,5.966-2.982,9.943h10.938c2.219,0,3.967,1.988,3.977,3.977S46.094,26.562,44.533,26.987L44.533,26.987z
	 M10.156,42.188c0,1.295-1.049,2.344-2.344,2.344s-2.344-1.049-2.344-2.344s1.049-2.344,2.344-2.344S10.156,40.893,10.156,42.188z"
	/>
</svg>
