<?xml version="1.0" encoding="utf-8"?>
<!-- Generator: Adobe Illustrator 16.0.0, SVG Export Plug-In . SVG Version: 6.00 Build 0)  -->
<!DOCTYPE svg PUBLIC "-//W3C//DTD SVG 1.1//EN" "http://www.w3.org/Graphics/SVG/1.1/DTD/svg11.dtd">
<svg version="1.1" id="Layer_1" xmlns="http://www.w3.org/2000/svg" xmlns:xlink="http://www.w3.org/1999/xlink" x="0px" y="0px"
	 width="50px" height="50px" viewBox="0 0 50 50" enable-background="new 0 0 50 50" xml:space="preserve">
<path fill="#FFFFFF" d="M48.502,22.101c0.537-2.181,0.275-4.871-0.94-6.778c0.421-2.321-0.303-4.822-1.78-6.553
	C45.969,3.506,42.749,0,36.96,0.001c-0.329-0.003-3.468,0-4.005,0C25.449,0,19.132,3.906,15.625,3.906h-1.059
	C14.015,3.42,13.292,3.125,12.5,3.125H3.125C1.399,3.125,0,4.524,0,6.25v25c0,1.727,1.399,3.125,3.125,3.125H12.5
	c1.726,0,3.125-1.398,3.125-3.125v-1.219c0.083,0.025,0.162,0.054,0.232,0.084c2.111,1.135,5.625,6.726,7.927,9.027
	c0.967,0.967,1.281,2.582,1.614,4.292C25.955,46.297,27.043,50,29.972,50c5.821,0,8.097-3.386,8.097-9.09
	c0-3.018-1.17-5.122-2.021-6.818h6.852c3.97,0,7.102-3.408,7.102-7.087C50,25,49.471,23.358,48.502,22.101z M12.5,31.25H3.125v-25
	H12.5V31.25z M42.898,30.967H31.961c0,3.978,2.982,5.823,2.982,9.943c0,2.498,0,5.966-4.972,5.966
	c-1.989-1.989-0.994-6.96-3.978-9.942c-2.793-2.795-6.96-9.943-9.943-9.943h-0.426V7.104h0.426c3.389,0,9.943-3.977,16.904-3.977
	c0.34,0,3.653-0.003,3.977,0c3.736,0.036,6.396,1.8,5.588,6.931c1.598,0.857,2.786,3.832,1.466,6.055
	c2.108,1.076,2.108,5.763,0.548,6.901c1.561,0.425,2.352,1.988,2.342,3.978C46.865,28.979,45.117,30.967,42.898,30.967z
	 M10.156,26.562c0,1.295-1.049,2.344-2.344,2.344s-2.344-1.049-2.344-2.344c0-1.294,1.049-2.344,2.344-2.344
	S10.156,25.268,10.156,26.562z"/>
</svg>
