<?xml version="1.0" encoding="utf-8"?>
<!-- Generator: Adobe Illustrator 16.0.0, SVG Export Plug-In . SVG Version: 6.00 Build 0)  -->
<!DOCTYPE svg PUBLIC "-//W3C//DTD SVG 1.1//EN" "http://www.w3.org/Graphics/SVG/1.1/DTD/svg11.dtd">
<svg version="1.1" id="Layer_1" xmlns="http://www.w3.org/2000/svg" xmlns:xlink="http://www.w3.org/1999/xlink" x="0px" y="0px"
	 width="50px" height="50px" viewBox="0 0 50 50" enable-background="new 0 0 50 50" xml:space="preserve">
<path fill="#FFFFFF" d="M32.256,34.053l-0.439,0.645c-0.371,0.537-1.094,0.664-1.631,0.303l-6.23-4.287
	c-0.322-0.215-0.508-0.576-0.508-0.967V16.797c0-0.645,0.527-1.172,1.172-1.172H25.4c0.645,0,1.172,0.527,1.172,1.172v11.914
	l5.391,3.711C32.48,32.793,32.617,33.516,32.256,34.053z M40,44.043l3.291,3.291c0.605,0.605,0.605,1.602,0,2.207
	c-0.605,0.615-1.602,0.605-2.207,0l-3.516-3.516C34.014,48.535,29.678,50,25,50s-9.014-1.465-12.568-3.975l-3.516,3.516
	c-0.605,0.615-1.602,0.605-2.207,0s-0.605-1.602,0-2.207L10,44.043c-4.238-3.984-6.875-9.648-6.875-15.918
	c0-3.682,0.908-7.158,2.52-10.205c-1.572-1.895-2.52-4.326-2.52-6.982C3.125,4.893,8.018,0,14.062,0c4.375,0,8.145,2.568,9.893,6.27
	c0.693-0.029,1.416-0.029,2.08,0C27.773,2.598,31.533,0,35.938,0c6.045,0,10.938,4.893,10.938,10.938
	c0,2.656-0.947,5.088-2.52,6.982c1.611,3.047,2.52,6.523,2.52,10.205C46.875,34.395,44.238,40.059,40,44.043z M29.385,6.689
	c5.371,1.094,10.02,4.15,13.174,8.389c0.752-1.201,1.191-2.617,1.191-4.141c0-4.307-3.506-7.812-7.812-7.812
	C33.193,3.125,30.781,4.551,29.385,6.689z M6.25,10.938c0,1.523,0.439,2.939,1.191,4.141c3.154-4.238,7.812-7.295,13.174-8.389
	c-1.396-2.139-3.809-3.564-6.553-3.564C9.756,3.125,6.25,6.631,6.25,10.938z M25,9.375c-10.352,0-18.75,8.398-18.75,18.75
	s8.398,18.75,18.75,18.75s18.75-8.398,18.75-18.75S35.352,9.375,25,9.375z"/>
</svg>
