<?xml version="1.0" encoding="utf-8"?>
<!-- Generator: Adobe Illustrator 16.0.0, SVG Export Plug-In . SVG Version: 6.00 Build 0)  -->
<!DOCTYPE svg PUBLIC "-//W3C//DTD SVG 1.1//EN" "http://www.w3.org/Graphics/SVG/1.1/DTD/svg11.dtd">
<svg version="1.1" id="Layer_1" xmlns="http://www.w3.org/2000/svg" xmlns:xlink="http://www.w3.org/1999/xlink" x="0px" y="0px"
	 width="50px" height="50px" viewBox="0 0 50 50" enable-background="new 0 0 50 50" xml:space="preserve">
<path fill="#FFFFFF" d="M45.834,8.333H4.167C1.865,8.333,0,10.199,0,12.5v25c0,2.301,1.865,4.166,4.167,4.166h41.667
	c2.301,0,4.166-1.865,4.166-4.166v-25C50,10.199,48.135,8.333,45.834,8.333z M47.223,37.5c0,0.766-0.623,1.389-1.389,1.389H4.167
	c-0.766,0-1.389-0.623-1.389-1.389v-25c0-0.766,0.623-1.389,1.389-1.389h41.667c0.766,0,1.389,0.623,1.389,1.389V37.5z
	 M14.583,26.041v-2.083c0-0.576-0.467-1.042-1.042-1.042h-2.083c-0.575,0-1.042,0.466-1.042,1.042v2.083
	c0,0.576,0.467,1.043,1.042,1.043h2.083C14.117,27.084,14.583,26.617,14.583,26.041z M22.917,26.041v-2.083
	c0-0.576-0.466-1.042-1.042-1.042h-2.083c-0.575,0-1.042,0.466-1.042,1.042v2.083c0,0.576,0.466,1.043,1.042,1.043h2.083
	C22.45,27.084,22.917,26.617,22.917,26.041z M31.25,26.041v-2.083c0-0.576-0.467-1.042-1.041-1.042h-2.084
	c-0.575,0-1.041,0.466-1.041,1.042v2.083c0,0.576,0.466,1.043,1.041,1.043h2.084C30.783,27.084,31.25,26.617,31.25,26.041z
	 M39.584,26.041v-2.083c0-0.576-0.467-1.042-1.043-1.042h-2.082c-0.576,0-1.043,0.466-1.043,1.042v2.083
	c0,0.576,0.467,1.043,1.043,1.043h2.082C39.117,27.084,39.584,26.617,39.584,26.041z M10.417,32.986v-2.084
	c0-0.574-0.466-1.041-1.042-1.041H7.292c-0.575,0-1.042,0.467-1.042,1.041v2.084c0,0.575,0.466,1.041,1.042,1.041h2.083
	C9.95,34.027,10.417,33.562,10.417,32.986z M43.75,32.986v-2.084c0-0.574-0.467-1.041-1.041-1.041h-2.084
	c-0.575,0-1.041,0.467-1.041,1.041v2.084c0,0.575,0.466,1.041,1.041,1.041h2.084C43.283,34.027,43.75,33.562,43.75,32.986z
	 M10.417,19.097v-2.083c0-0.575-0.466-1.042-1.042-1.042H7.292c-0.575,0-1.042,0.466-1.042,1.042v2.083
	c0,0.575,0.466,1.042,1.042,1.042h2.083C9.95,20.139,10.417,19.672,10.417,19.097z M18.75,19.097v-2.083
	c0-0.575-0.466-1.042-1.042-1.042h-2.083c-0.575,0-1.042,0.466-1.042,1.042v2.083c0,0.575,0.466,1.042,1.042,1.042h2.083
	C18.284,20.139,18.75,19.672,18.75,19.097z M27.084,19.097v-2.083c0-0.575-0.467-1.042-1.043-1.042h-2.083
	c-0.576,0-1.042,0.466-1.042,1.042v2.083c0,0.575,0.466,1.042,1.042,1.042h2.083C26.617,20.139,27.084,19.672,27.084,19.097z
	 M35.416,19.097v-2.083c0-0.575-0.466-1.042-1.041-1.042h-2.084c-0.574,0-1.041,0.466-1.041,1.042v2.083
	c0,0.575,0.467,1.042,1.041,1.042h2.084C34.95,20.139,35.416,19.672,35.416,19.097z M43.75,19.097v-2.083
	c0-0.575-0.467-1.042-1.041-1.042h-2.084c-0.575,0-1.041,0.466-1.041,1.042v2.083c0,0.575,0.466,1.042,1.041,1.042h2.084
	C43.283,20.139,43.75,19.672,43.75,19.097z M35.416,32.291v-0.693c0-0.576-0.466-1.042-1.041-1.042h-18.75
	c-0.575,0-1.042,0.466-1.042,1.042v0.693c0,0.576,0.466,1.043,1.042,1.043h18.75C34.95,33.334,35.416,32.867,35.416,32.291z"/>
</svg>
