<?xml version="1.0" encoding="utf-8"?>
<!-- Generator: Adobe Illustrator 16.0.0, SVG Export Plug-In . SVG Version: 6.00 Build 0)  -->
<!DOCTYPE svg PUBLIC "-//W3C//DTD SVG 1.1//EN" "http://www.w3.org/Graphics/SVG/1.1/DTD/svg11.dtd">
<svg version="1.1" id="Layer_1" xmlns="http://www.w3.org/2000/svg" xmlns:xlink="http://www.w3.org/1999/xlink" x="0px" y="0px"
	 width="50px" height="50px" viewBox="0 0 50 50" enable-background="new 0 0 50 50" xml:space="preserve">
<path fill="#FFFFFF" d="M16.25,20c-2.758,0-5,2.242-5,5s2.242,5.625,5,5.625s5.477-2.867,5.477-5.625S19.008,20,16.25,20z
	 M16.25,28.125c-1.375,0-2.5-1.75-2.5-3.125s1.125-2.5,2.5-2.5s2.5,1.125,2.5,2.5S17.625,28.125,16.25,28.125z M36.383,20.711
	l-2.141,1.266c-0.227,0.133-0.508,0.109-0.711-0.047l-1.969-1.578c-0.203-0.164-0.289-0.445-0.203-0.695l0.797-2.305
	c0.172-0.5,0.008-1.055-0.398-1.383l-4.195-3.359c-3.211-2.891-7.352-4.164-11.312-4.164c-2.555,0-5.102,0.602-7.422,1.805
	c-0.945-1.125-2.32-1.812-3.805-1.812c-2.75,0-5,2.242-5,5c0,1.508,0.688,2.906,1.805,3.836
	c-5.391,10.516,1.664,24.289,14.453,24.289c3.961,0,10.156-1.508,13.977-7.266l11.617,6.719c0.547,0.312,1.5,0.172,1.875-0.336
	l6.016-8.148c0.406-0.539,0.273-1.305-0.258-1.727l-11.711-10C37.391,20.484,36.828,20.445,36.383,20.711z M2.5,13.438
	c0-1.383,1.117-2.5,2.5-2.5c0.625,0,1.219,0.234,1.672,0.641c-1.953,1.43-2.883,2.602-3.547,3.508
	C2.719,14.641,2.5,14.07,2.5,13.438z M42.633,37.859c-0.188,0.25-0.539,0.32-0.812,0.164l-12.344-7.055
	c-1.172,1.766-4.414,8.055-13.172,8.094c-3.492,0.016-6.875-1.305-9.43-3.688c-5.703-5.328-5.82-14.938-0.344-20.414
	c2.594-2.594,6.039-4.023,9.711-4.023c6.25,0,8.828,2.875,13.281,6.43l-0.938,2.727c-0.172,0.5-0.008,1.055,0.398,1.383L33,24.688
	c0.406,0.328,0.969,0.367,1.422,0.102l2.516-1.492l9.625,8.32c0.266,0.211,0.312,0.594,0.109,0.859L42.633,37.859z"/>
</svg>
