<?xml version="1.0" encoding="utf-8"?>
<!-- Generator: Adobe Illustrator 16.0.0, SVG Export Plug-In . SVG Version: 6.00 Build 0)  -->
<!DOCTYPE svg PUBLIC "-//W3C//DTD SVG 1.1//EN" "http://www.w3.org/Graphics/SVG/1.1/DTD/svg11.dtd">
<svg version="1.1" id="Layer_1" xmlns="http://www.w3.org/2000/svg" xmlns:xlink="http://www.w3.org/1999/xlink" x="0px" y="0px"
	 width="50px" height="50px" viewBox="0 0 50 50" enable-background="new 0 0 50 50" xml:space="preserve">
<path fill="#FFFFFF" d="M41.155,20.307l-8.044-0.88l-3.255-1.302h-1.16l-6.573-8.156C23.758,9.846,25,9.356,25,8.75
	c0-0.703-1.67-1.25-3.687-1.25H11.25V10h1.25v9.375h-0.127l-5-5.625H2.849l-2.224,2.196v5.285L0,21.308v7.383l0.625,0.078v5.285
	l2.224,2.195h4.524l5-5.625H12.5V40h-1.25v2.5h10.063C23.33,42.5,25,41.953,25,41.25c0-0.605-1.242-1.096-2.876-1.219l6.573-8.156
	h1.16l3.255-1.302l8.044-0.88C46.795,28.455,50,27.902,50,25C50,22.074,46.729,21.531,41.155,20.307L41.155,20.307z M40.75,27.223
	l-8.25,0.902l-3.125,1.25H27.5L18.938,40H15V28.125h-3.75l-5,5.625H3.875l-0.75-0.74v-4.26H3.75V27.5H7v-0.463l-4.5-0.556v-2.963
	L7,22.963V22.5H3.75v-1.25H3.125v-4.259l0.75-0.741H6.25l5,5.625H15V10h3.938L27.5,20.625h1.875l3.125,1.25l8.25,0.903
	C47.5,24.259,47.5,24.624,47.5,25S47.5,25.74,40.75,27.223z"/>
</svg>
